<?xml version="1.0" encoding="UTF-8"?>
<svg enable-background="new 0 0 85.237 93.456" viewBox="0 0 85.237 93.456" xmlns="http://www.w3.org/2000/svg">
 <defs>
  <linearGradient id="f" x1="28.926" x2="31.761" gradientUnits="userSpaceOnUse">
   <stop stop-color="#595959" offset=".0056"/>
   <stop stop-color="#616161" offset=".1717"/>
   <stop stop-color="#767676" offset=".4244"/>
   <stop stop-color="#7f7f7f" offset=".5168"/>
   <stop stop-color="#7a7a7a" offset=".5168"/>
   <stop stop-color="#707070" offset=".6203"/>
   <stop stop-color="#616161" offset=".8299"/>
   <stop stop-color="#5c5c5c" offset="1"/>
  </linearGradient>
  <radialGradient id="c" cx="42.087" cy="49.22" r="4.2196" gradientUnits="userSpaceOnUse">
   <stop stop-color="#fff" offset=".0944"/>
   <stop stop-color="#d8e6f1" offset=".1823"/>
   <stop stop-color="#92bbd9" offset=".3535"/>
   <stop stop-color="#76acd1" offset=".4333"/>
   <stop stop-color="#65a2cb" offset=".5047"/>
   <stop stop-color="#378abe" offset=".7111"/>
   <stop stop-color="#3483ba" offset=".7579"/>
   <stop stop-color="#2a6eb0" offset=".8355"/>
   <stop stop-color="#1b4fa1" offset=".9336"/>
   <stop stop-color="#0d3896" offset="1"/>
  </radialGradient>
  <radialGradient id="b" cx="52.537" cy="49.22" r="4.2196" gradientUnits="userSpaceOnUse">
   <stop stop-color="#fff" offset=".0944"/>
   <stop stop-color="#d8e6f1" offset=".1823"/>
   <stop stop-color="#92bbd9" offset=".3535"/>
   <stop stop-color="#76acd1" offset=".4333"/>
   <stop stop-color="#65a2cb" offset=".5047"/>
   <stop stop-color="#378abe" offset=".7111"/>
   <stop stop-color="#3483ba" offset=".7579"/>
   <stop stop-color="#2a6eb0" offset=".8355"/>
   <stop stop-color="#1b4fa1" offset=".9336"/>
   <stop stop-color="#0d3896" offset="1"/>
  </radialGradient>
  <radialGradient id="a" cx="47.117" cy="44.539" r="4.2202" gradientUnits="userSpaceOnUse">
   <stop stop-color="#fff" offset=".0944"/>
   <stop stop-color="#d8e6f1" offset=".1823"/>
   <stop stop-color="#92bbd9" offset=".3535"/>
   <stop stop-color="#76acd1" offset=".4333"/>
   <stop stop-color="#65a2cb" offset=".5047"/>
   <stop stop-color="#378abe" offset=".7111"/>
   <stop stop-color="#3483ba" offset=".7579"/>
   <stop stop-color="#2a6eb0" offset=".8355"/>
   <stop stop-color="#1b4fa1" offset=".9336"/>
   <stop stop-color="#0d3896" offset="1"/>
  </radialGradient>
  <radialGradient id="m" cx="47.117" cy="53.898" r="4.2202" gradientUnits="userSpaceOnUse">
   <stop stop-color="#fff" offset=".0944"/>
   <stop stop-color="#d8e6f1" offset=".1823"/>
   <stop stop-color="#92bbd9" offset=".3535"/>
   <stop stop-color="#76acd1" offset=".4333"/>
   <stop stop-color="#65a2cb" offset=".5047"/>
   <stop stop-color="#378abe" offset=".7111"/>
   <stop stop-color="#3483ba" offset=".7579"/>
   <stop stop-color="#2a6eb0" offset=".8355"/>
   <stop stop-color="#1b4fa1" offset=".9336"/>
   <stop stop-color="#0d3896" offset="1"/>
  </radialGradient>
  <radialGradient id="l" cx="37.195" cy="58.11" r="7.4685" gradientUnits="userSpaceOnUse">
   <stop stop-color="#fff" offset=".0944"/>
   <stop stop-color="#d8e6f1" offset=".1823"/>
   <stop stop-color="#92bbd9" offset=".3535"/>
   <stop stop-color="#76acd1" offset=".4333"/>
   <stop stop-color="#65a2cb" offset=".5047"/>
   <stop stop-color="#378abe" offset=".7111"/>
   <stop stop-color="#3483ba" offset=".7579"/>
   <stop stop-color="#2a6eb0" offset=".8355"/>
   <stop stop-color="#1b4fa1" offset=".9336"/>
   <stop stop-color="#0d3896" offset="1"/>
  </radialGradient>
  <radialGradient id="k" cx="34.922" cy="44.871" r="3.464" gradientUnits="userSpaceOnUse">
   <stop stop-color="#fff" offset=".0944"/>
   <stop stop-color="#d8e6f1" offset=".1823"/>
   <stop stop-color="#92bbd9" offset=".3535"/>
   <stop stop-color="#76acd1" offset=".4333"/>
   <stop stop-color="#65a2cb" offset=".5047"/>
   <stop stop-color="#378abe" offset=".7111"/>
   <stop stop-color="#3483ba" offset=".7579"/>
   <stop stop-color="#2a6eb0" offset=".8355"/>
   <stop stop-color="#1b4fa1" offset=".9336"/>
   <stop stop-color="#0d3896" offset="1"/>
  </radialGradient>
  <radialGradient id="j" cx="-1321" cy="57.718" r="8.9568" gradientTransform="matrix(-1 0 0 1 -1302.4 0)" gradientUnits="userSpaceOnUse">
   <stop stop-color="#fff" offset=".0944"/>
   <stop stop-color="#d8e6f1" offset=".1823"/>
   <stop stop-color="#92bbd9" offset=".3535"/>
   <stop stop-color="#76acd1" offset=".4333"/>
   <stop stop-color="#65a2cb" offset=".5047"/>
   <stop stop-color="#378abe" offset=".7111"/>
   <stop stop-color="#3483ba" offset=".7579"/>
   <stop stop-color="#2a6eb0" offset=".8355"/>
   <stop stop-color="#1b4fa1" offset=".9336"/>
   <stop stop-color="#0d3896" offset="1"/>
  </radialGradient>
  <radialGradient id="i" cx="-1325.5" cy="45.005" r="4.1229" gradientTransform="matrix(-1 0 0 1 -1302.4 0)" gradientUnits="userSpaceOnUse">
   <stop stop-color="#fff" offset=".0944"/>
   <stop stop-color="#d8e6f1" offset=".1823"/>
   <stop stop-color="#92bbd9" offset=".3535"/>
   <stop stop-color="#76acd1" offset=".4333"/>
   <stop stop-color="#65a2cb" offset=".5047"/>
   <stop stop-color="#378abe" offset=".7111"/>
   <stop stop-color="#3483ba" offset=".7579"/>
   <stop stop-color="#2a6eb0" offset=".8355"/>
   <stop stop-color="#1b4fa1" offset=".9336"/>
   <stop stop-color="#0d3896" offset="1"/>
  </radialGradient>
  <radialGradient id="h" cx="10.004" cy="47.731" r="6.9473" gradientUnits="userSpaceOnUse">
   <stop stop-color="#fff" offset=".0944"/>
   <stop stop-color="#bddcea" offset=".3243"/>
   <stop stop-color="#a1cfe3" offset=".4382"/>
   <stop stop-color="#66a7ce" offset=".5844"/>
   <stop stop-color="#378abe" offset=".7111"/>
   <stop stop-color="#2f86bc" offset=".7924"/>
   <stop stop-color="#187cb6" offset=".9268"/>
   <stop stop-color="#0575b2" offset="1"/>
  </radialGradient>
  <radialGradient id="g" cx="10.004" cy="47.731" r="6.9469" gradientUnits="userSpaceOnUse">
   <stop stop-color="#fff" offset=".0944"/>
   <stop stop-color="#bddcea" offset=".3243"/>
   <stop stop-color="#a1cfe3" offset=".4382"/>
   <stop stop-color="#66a7ce" offset=".5844"/>
   <stop stop-color="#378abe" offset=".7111"/>
   <stop stop-color="#2f86bc" offset=".7924"/>
   <stop stop-color="#187cb6" offset=".9268"/>
   <stop stop-color="#0575b2" offset="1"/>
  </radialGradient>
  <radialGradient id="e" cx="45.021" cy="56.502" r="17.337" gradientUnits="userSpaceOnUse">
   <stop stop-color="#fff" offset=".0944"/>
   <stop stop-color="#d8e6f1" offset=".1823"/>
   <stop stop-color="#92bbd9" offset=".3535"/>
   <stop stop-color="#76acd1" offset=".4333"/>
   <stop stop-color="#65a2cb" offset=".5047"/>
   <stop stop-color="#378abe" offset=".7111"/>
   <stop stop-color="#3483ba" offset=".7579"/>
   <stop stop-color="#2a6eb0" offset=".8355"/>
   <stop stop-color="#1b4fa1" offset=".9336"/>
   <stop stop-color="#0d3896" offset="1"/>
  </radialGradient>
  <radialGradient id="d" cx="15.695" cy="56.502" r="17.338" gradientUnits="userSpaceOnUse">
   <stop stop-color="#fff" offset=".0944"/>
   <stop stop-color="#d8e6f1" offset=".1823"/>
   <stop stop-color="#92bbd9" offset=".3535"/>
   <stop stop-color="#76acd1" offset=".4333"/>
   <stop stop-color="#65a2cb" offset=".5047"/>
   <stop stop-color="#378abe" offset=".7111"/>
   <stop stop-color="#3483ba" offset=".7579"/>
   <stop stop-color="#2a6eb0" offset=".8355"/>
   <stop stop-color="#1b4fa1" offset=".9336"/>
   <stop stop-color="#0d3896" offset="1"/>
  </radialGradient>
 </defs>
 <path d="m30.293,64.333h2.223c4.563,6.513 11.56,3.005 11.56,3.005 .938,3.117 4.992,7.057 4.992,7.057 3.004,2.809 9.281,2.301 10.686-8.461s-.621-18.417-2.438-22.072c-2.729-5.499-6.414-7.072-6.414-7.072l-1.131.015-.195-.233h-4.914l-.008.623c-2.667,4.944-4.001,5.254-4.001,5.254h-10.36v21.884z" fill="#696969" stroke="#000"/>
 <path d="m30.428,64.333h-2.223c-4.563,6.513-11.561,3.005-11.561,3.005-.938,3.117-4.992,7.057-4.992,7.057-3.004,2.809-9.281,2.301-10.686-8.461s.622-18.417 2.438-22.073c2.729-5.499 6.414-7.072 6.414-7.072l1.131.015 .195-.233h4.914l.008.623c2.668,4.944 4.002,5.254 4.002,5.254h10.359v21.885z" fill="#696969" stroke="#000"/>
 <path d="m46.437 60.395c0 3.769-3.055 6.824-6.824 6.824s-6.824-3.056-6.824-6.824 3.055-6.824 6.824-6.824 6.824 3.054 6.824 6.824z" fill="#949494"/>
 <path d="m57.47 50.568c0 4.953-4.016 8.969-8.969 8.969s-8.968-4.016-8.968-8.969 4.015-8.969 8.968-8.969 8.969 4.016 8.969 8.969z" fill="#949494"/>
 <switch transform="matrix(.9998 0 0 .9998 26.254 33.467)"/>
 <path d="m45.658,50.51c0,1.217-.986,2.203-2.203,2.203s-2.203-.986-2.203-2.203 .986-2.203 2.203-2.203 2.203.986 2.203,2.203z" fill="url(#c)"/>
 <path d="m45.658,50.51c0,1.217-.986,2.203-2.203,2.203s-2.203-.986-2.203-2.203 .986-2.203 2.203-2.203 2.203.986 2.203,2.203z" fill="none" stroke="#000"/>
 <switch transform="matrix(.9996 0 0 .9998 36.254 33.467)"/>
 <path d="m56.107,50.51c0,1.217-.986,2.203-2.203,2.203s-2.203-.986-2.203-2.203 .986-2.203 2.203-2.203 2.203.986 2.203,2.203z" fill="url(#b)"/>
 <path d="m56.107,50.51c0,1.217-.986,2.203-2.203,2.203s-2.203-.986-2.203-2.203 .986-2.203 2.203-2.203 2.203.986 2.203,2.203z" fill="none" stroke="#000"/>
 <switch transform="matrix(.9998 0 0 .9996 31.254 28.473)"/>
 <path d="m50.687,45.83c0,1.217-.986,2.203-2.203,2.203s-2.203-.986-2.203-2.203 .986-2.203 2.203-2.203 2.203.986 2.203,2.203z" fill="url(#a)"/>
 <path d="m50.687,45.83c0,1.217-.986,2.203-2.203,2.203s-2.203-.986-2.203-2.203 .986-2.203 2.203-2.203 2.203.986 2.203,2.203z" fill="none" stroke="#000"/>
 <switch transform="matrix(.9998 0 0 .9998 31.754 38.009)"/>
 <path d="m50.687,55.188c0,1.217-.986,2.204-2.203,2.204s-2.203-.987-2.203-2.204 .986-2.203 2.203-2.203 2.203.988 2.203,2.203z" fill="url(#m)"/>
 <path d="m50.687,55.188c0,1.217-.986,2.204-2.203,2.204s-2.203-.987-2.203-2.204 .986-2.203 2.203-2.203 2.203.988 2.203,2.203z" fill="none" stroke="#000"/>
 <switch transform="matrix(.9998 0 0 .9998 20.254 41.469)"/>
 <path d="m43.513 60.395c0 2.153-1.746 3.899-3.9 3.899s-3.9-1.746-3.9-3.899 1.746-3.899 3.9-3.899 3.9 1.744 3.9 3.899z" fill="url(#l)"/>
 <path d="m43.513 60.395c0 2.153-1.746 3.899-3.9 3.899s-3.9-1.746-3.9-3.899 1.746-3.899 3.9-3.899 3.9 1.744 3.9 3.899z" fill="none" stroke="#000"/>
 <switch transform="matrix(.9997 0 0 1.0002 19.754 29.987)"/>
 <path d="m38.365,45.693c0,.775-.951,1.404-2.125,1.404s-2.125-.629-2.125-1.404 .951-1.404 2.125-1.404 2.125.629 2.125,1.404z" fill="url(#k)"/>
 <path d="m38.365,45.693c0,.775-.951,1.404-2.125,1.404s-2.125-.629-2.125-1.404 .951-1.404 2.125-1.404 2.125.629 2.125,1.404z" fill="none" stroke="#000" stroke-width=".25"/>
 <path d="m14.283 60.395c0 3.769 3.055 6.824 6.824 6.824s6.824-3.056 6.824-6.824-3.055-6.824-6.824-6.824-6.824 3.054-6.824 6.824z" fill="#949494"/>
 <path d="m3.25 50.568c0 4.953 4.016 8.969 8.969 8.969s8.969-4.016 8.969-8.969-4.016-8.968-8.969-8.968-8.969 4.015-8.969 8.968z" fill="#949494"/>
 <switch transform="matrix(.9998 0 0 .9998 1.7539 41.135)"/>
 <path d="m17.207 60.395c0 2.153 1.746 3.899 3.9 3.899s3.898-1.746 3.898-3.899-1.744-3.899-3.898-3.899-3.9 1.744-3.9 3.899z" fill="url(#j)"/>
 <path d="m17.207 60.395c0 2.153 1.746 3.899 3.9 3.899s3.898-1.746 3.898-3.899-1.744-3.899-3.898-3.899-3.9 1.744-3.9 3.899z" fill="none" stroke="#000"/>
 <switch transform="matrix(.9997 0 0 1.0002 7.7539 29.987)"/>
 <path d="m22.355,45.693c0,.775.951,1.404 2.125,1.404s2.125-.629 2.125-1.404-.951-1.404-2.125-1.404-2.125.629-2.125,1.404z" fill="url(#i)"/>
 <path d="m22.355,45.693c0,.775.951,1.404 2.125,1.404s2.125-.629 2.125-1.404-.951-1.404-2.125-1.404-2.125.629-2.125,1.404z" fill="none" stroke="#000" stroke-width=".25"/>
 <path d="m17.428 50.26c0 2.971-2.41 5.381-5.381 5.381s-5.383-2.41-5.383-5.381 2.41-5.382 5.383-5.382 5.381 2.409 5.381 5.382z" fill="#3d3d3d"/>
 <path d="m14.033 56.556h-3.9v-12.583h3.9v12.583z" fill="url(#h)"/>
 <path d="m18.375 48.314v3.899h-12.582v-3.899h12.582z" fill="url(#g)"/>
 <path d="m17.408 50.268c0 2.973-2.408 5.382-5.381 5.382s-5.381-2.409-5.381-5.382 2.41-5.381 5.381-5.381 5.381 2.409 5.381 5.381z" fill="#3d3d3d"/>
 <path d="m14.02 56.533h-3.9v-12.583h3.9v12.583z" fill="#696969"/>
 <path d="m18.361 48.291v3.9h-12.584v-3.9h12.584z" fill="#696969"/>
 <path d="m17.408 50.268c0 2.973-2.408 5.382-5.381 5.382s-5.381-2.409-5.381-5.382 2.41-5.381 5.381-5.381 5.381 2.409 5.381 5.381z" fill="none" stroke="#000" stroke-linecap="round" stroke-linejoin="round" stroke-width="2"/>
 <path d="m14.02 56.533h-3.9v-12.583h3.9v12.583z" fill="none" stroke="#000" stroke-linecap="round" stroke-linejoin="round" stroke-width="2"/>
 <path d="m18.361 48.291v3.9h-12.584v-3.9h12.584z" fill="none" stroke="#000" stroke-linecap="round" stroke-linejoin="round" stroke-width="2"/>
 <path d="m31.76 63.819h-2.834v-20.897h2.834v20.897z" fill="url(#f)"/>
 <switch transform="matrix(1.0002,0,0,1,8.7539,0)"/>
 <path d="m30.553 42.197s2.619-13.178-5.424-22.09c-9.313-10.32 18.896-3.574 23.875 0.75" fill="none" stroke="#000"/>
 <g opacity=".67">
  <path d="m30.293,64.666h2.223c4.563,6.512 11.558,3.004 11.558,3.004 .938,3.117 4.994,7.058 4.994,7.058 3.002,2.808 9.279,2.301 10.684-8.462s-.622-18.416-2.436-22.073c-2.73-5.498-6.416-7.071-6.416-7.071l-1.131.015-.195-.234h-4.914l-.008.623c-2.667,4.945-4.001,5.255-4.001,5.255h-10.36l.002,21.885z" fill="url(#e)"/>
  <path d="m30.426,64.666h-2.223c-4.563,6.512-11.561,3.004-11.561,3.004-.938,3.117-4.992,7.058-4.992,7.058-3.004,2.808-9.281,2.301-10.686-8.462s.624-18.416 2.438-22.073c2.729-5.498 6.414-7.071 6.414-7.071l1.131.015 .195-.234h4.914l.008.623c2.668,4.945 4.002,5.255 4.002,5.255h10.361l-.001,21.885z" fill="url(#d)"/>
 </g>
</svg>
