<?xml version="1.0" encoding="UTF-8"?>
<svg width="267.58mm" height="541.87mm" version="1.1" viewBox="0 0 948.10423 1919.9999" xmlns="http://www.w3.org/2000/svg">
 <defs>
  <linearGradient id="d" x1="-399.92" x2="-399.92" y1="790.31" y2="520.2" gradientUnits="userSpaceOnUse">
   <stop stop-color="#b3b3b3" offset="0"/>
   <stop stop-color="#fff" offset="1"/>
  </linearGradient>
  <linearGradient id="e" x1="-401" x2="-399" y1="873.36" y2="419.36" gradientUnits="userSpaceOnUse">
   <stop stop-color="#4d4d4d" offset="0"/>
   <stop stop-color="#9b9b9b" offset="1"/>
  </linearGradient>
  <linearGradient id="f" x1="-384.29" x2="-384.29" y1="415.26" y2="630.26" gradientUnits="userSpaceOnUse">
   <stop stop-color="#f9f9f9" offset="0"/>
   <stop stop-color="#f9f9f9" stop-opacity="0" offset="1"/>
  </linearGradient>
 </defs>
 <g transform="translate(-770.6 1636.3)">
  <g transform="matrix(4.6037 0 0 4.6037 3077.1 -3741.7)">
   <path d="m-500.36 505.86c-0.36725 0-0.66211 0.29681-0.66211 0.66406v13.674c0 0.36725 0.29486 0.66211 0.66211 0.66211h1.6738c0.36725 0 0.66406-0.29486 0.66406-0.66211v-13.674c0-0.36725-0.29681-0.66406-0.66406-0.66406h-1.6738zm203.61 9.0312c-0.73451 0-1.3262 0.59166-1.3262 1.3262v27.35c0 0.73451 0.59166 1.3242 1.3262 1.3242h0.34765c0.73451 0 1.3262-0.58971 1.3262-1.3242v-27.35c0-0.73451-0.59167-1.3262-1.3262-1.3262h-0.34765zm-202.95 18.824c-0.73451 0-1.3242 0.59166-1.3242 1.3262v27.348c0 0.73451 0.58971 1.3262 1.3242 1.3262h0.34961c0.73451 0 1.3262-0.59167 1.3262-1.3262v-27.348c0-0.73451-0.59166-1.3262-1.3262-1.3262h-0.34961zm0 34.119c-0.73451 0-1.3242 0.58971-1.3242 1.3242v27.35c0 0.7345 0.58971 1.3262 1.3242 1.3262h0.34961c0.73451 0 1.3262-0.59167 1.3262-1.3262v-27.35c0-0.73451-0.59166-1.3242-1.3262-1.3242h-0.34961z"/>
   <path d="m-477 457.33c-12.186 0-22.029 9.8429-22.029 22.029v373c0 12.186 9.8429 22.029 22.029 22.029h158c12.186 0 22.029-9.8429 22.029-22.029v-373c0-12.186-9.8429-22.029-22.029-22.029h-158z" fill="url(#e)"/>
   <rect x="-498" y="458.36" width="200" height="415" ry="21"/>
   <path d="m-442.24 458.36 144.24 176.9v-155.9c0-11.634-9.366-21-21-21h-123.24z" fill="url(#f)" fill-rule="evenodd" stroke="#000" stroke-width=".21722px"/>
   <path d="m-488 503.86a2.0014 2.0014 0 0 0 -2.002 2.002v320a2.0014 2.0014 0 0 0 2.002 2.002h180a2.0014 2.0014 0 0 0 2.002 -2.002v-320a2.0014 2.0014 0 0 0 -2.002 -2.002h-180z" fill="#1a1a1a"/>
   <rect x="-488" y="505.86" width="180" height="320" fill="url(#d)"/>
   <circle cx="-398" cy="848.86" r="16.5" fill="#333"/>
   <circle cx="-398" cy="848.86" r="15"/>
   <rect x="-413" y="484.73" width="30" height="5" ry="2.5"/>
   <circle cx="-398" cy="470.86" r="2.5"/>
   <circle cx="-431.5" cy="487.23" r="4.5" fill="#333"/>
   <path d="m-383.18 846.62a20.188 20.188 0 0 1 -14.818 6.5176 20.188 20.188 0 0 1 -14.814 -6.502 15 15 0 0 0 -0.18555 2.2246 15 15 0 0 0 15 15 15 15 0 0 0 15 -15 15 15 0 0 0 -0.18164 -2.2402z" fill="#f9f9f9" opacity=".181"/>
   <path d="m-412.87 486.48c-0.075 0.2383-0.12695 0.4863-0.12695 0.75 0 1.385 1.115 2.5 2.5 2.5h25c1.385 0 2.5-1.115 2.5-2.5 0-0.2637-0.0519-0.5117-0.12695-0.75-0.31869 1.0137-1.2514 1.75-2.373 1.75h-25c-1.1216 0-2.0544-0.7363-2.373-1.75z" fill="#666"/>
   <path d="m-400.45 470.39a2.5 2.5 0 0 0 -0.0469 0.46875 2.5 2.5 0 0 0 2.5 2.5 2.5 2.5 0 0 0 2.5 -2.5 2.5 2.5 0 0 0 -0.0469 -0.4668 2.5 2.5 0 0 1 -2.4531 2.0293 2.5 2.5 0 0 1 -2.4531 -2.0312z" fill="#666"/>
   <path d="m-435.88 486.22a4.5 4.5 0 0 0 -0.11719 1.002 4.5 4.5 0 0 0 4.5 4.5 4.5 4.5 0 0 0 4.5 -4.5 4.5 4.5 0 0 0 -0.11719 -0.99609 4.5 4.5 0 0 1 -4.3828 3.4961 4.5 4.5 0 0 1 -4.3828 -3.502z" fill="#b3b3b3"/>
  </g>
 </g>
</svg>
