<?xml version="1.0" encoding="UTF-8"?>
<svg viewBox="0 0 1024 768" xmlns="http://www.w3.org/2000/svg">
 <g fill-rule="evenodd">
  <path d="m772 492h30q14 0 31 1h18q0 1 1 1 0 0-4 2h-5l7 1 6 1h-30q-29 0-42 2-13 0-22 2-8 2-40 6-31 2-42 6-10 4-29 5l-18 1v-9q1 0 0-3v-3h1v-2h1v1h3q2 0 1-1t14-3 19-3q5-1 6-2h2l1 1h-1 6l20-2q21-2 28-2h14q7 0 24 0z" fill="#919191" stroke="#919191"/>
  <path d="m812 603h1v1h1v2q2 3 1 4-1 0-1 1h-1q-1 1-1 1-1 0-6 2-4 2-5-1l-1-2 1-1 1-1v-1l4-2q5-2 6-3z" fill="#504f4c" stroke="#504f4c"/>
  <path d="m118 697l1-1h5l12 1q13 1 16 2t3 2h-17v-1h-3l-5-1q-5-1-8-1l-4-1z" fill="#6f6f6f" stroke="#6f6f6f"/>
  <path d="m242 504h6l3 1q3 1 18 1t19-1h3l1 1t1 0v1q0 1 0 1-1 0-23 2l-23 1h-1q-1 1-18 1-18 0-17 0t-17-1h-22l-4-1h6l32-3q31-3 36-3z" fill="#6e717a" stroke="#6e717a"/>
  <path d="m797 655v1q0 1-1 1l-1 1h-3q-2 0-3-2l-1-3v-2q0-1-1-4v-3l3-1q2-1 3 0 1 0 2 6t2 6z" fill="#42403e" stroke="#42403e"/>
  <path d="m161 605l3-2 2 3q2 4 2 5v1l1 1 1 1v3h-1v1h-6v-1q-1 0-1-3l-2-2v-2h-1v-2q-1-1 2-3z" fill="#393939" stroke="#393939"/>
  <path d="m823 602h-1t0-1v-1t-5-5l-5-5-3-1q-3-2-3-3t5 2q5 4 9 8t4 5-1 1z" fill="#c4c4c4" stroke="#c4c4c4"/>
  <path d="m408 660h1t1 1h1l1-1h3q3 0 5 2 1 2 4 2 4 0 5-1t1-1h1v1h1v3h4q3 0 2 0-2 0 8 1l11 1h-7q-7 0-18 2h-12v1h-12q-12 1-19 1h-22v-1h4v-2h1v1l8-1q8-1 14-3 6-3 6-3l4-1q3-2 4-2z" fill="#898989" stroke="#898989"/>
  <path d="m258 669l2-2h1l-3 3q-2 2 14 2 17 0 36 1h18v1h6v1h-18q-17 1-40 1t-22-1v-1q0-1 1-1h1q0-1 0-1 1 0 4-3z" fill="#6e6e6e" stroke="#6e6e6e"/>
  <path d="m819 628l1-1h1l2 1q1 1 2 5 0 3 1 4h1v1h-1q-2 0-2 1-1 1-1 1h-2q-2 0-2-2h-1q-1 0-2 0 0 0-2-1l-3-1 1-2q2-2 4-2 2-2 2-2t1-2z" fill="#868585" stroke="#868585"/>
  <path d="m813 562v-1l4 1q4 0 5 1v1l6 2q5 3 5 4v1h-1q-1 1-4-1-3 0-9-4-6-3-6-4z" fill="#222124" stroke="#222124"/>
  <path d="m778 621v1q0 1-1 2v1l1 3q2 2 3 3l1 1h3q-1 1-1 2-1 2-2 2h-2t0 1q-1 1-1 1v2q1 2 0 2h-2q-2 0-3 1l-1 1v-1q0-1-1-1t-2 2v1-1q0-1-2 0h-1v-1q1-1 1-1v-1q0-1 0-1t1-2l1-3h-1v-1h-3q-2 0-4 1l-3 1v1h-1v1h-1v-2l1-1q0-1 1-3l1-2v1h-1v-1h-1t-1 0h-1v-1h-2l-1-1h-3v-2h10q6 0 6-2t0-3v-1h2q1 1 2-1 1-1 4-2 2 0 2 2 1 1 2 2z" fill="#bcbcbc" stroke="#bcbcbc"/>
  <path d="m215 619v-1h2v1l1 1v-1h1l2 7q3 6 2 14-1 9-1 10v2l-2 2q0 3-1 3v1t-1 1h-2v-1t1 0v-1q1-1 1-3 2-2 2-9 2-7 0-8-1-1-2 0h-1v-1q-1 0-1-2v-2t0-6l-1-6v-1z" fill="#c4c4c4" stroke="#c4c4c4"/>
  <path d="m931 624h-1q-1 0-6 2t-18 4h-13l-4 1h-4q0-1 0-1h1l1-2q2-2 6-2t11-1q8-1 18-2t10 0q-1 1-1 1z" fill="#2b2b2c" stroke="#2b2b2c"/>
  <path d="m46 554h2t-2 1h-3v1q-1 2-1 2v-1q0-1-1-1h-1q-1 0-3-1l-2-1h3q3 0 4-1 0-1 0 0 1 1 4 1z" fill="#59595a" stroke="#59595a"/>
  <path d="m650 459l2-6 1 1q1 2 7 2 5 0 9 0t5 0 2 0l1 1q1 1 1 2v1l-3 12q-3 11-3 13v6h4q5-1 8-1h4v1h-2l-1 1h-2l-1 1-1 1h-2v1h-1q-1 1-6 2-4 1-19 3t-14 3-1 1h-3v-1h-1v2h-1v-1l1-2v-4l1-2q1-1 4-12l4-11v1h1v-1l1-1 1-1v-3l1-2q1-1 3-7z" fill="#7c7c7d" stroke="#7c7c7d"/>
  <path d="m851 493h5q4 1 21 1h32q15 0 15-1h1l27 2q27 3 34 5t7 3v1h-1q-1 0-6 8-4 8-5 6-1-1-2 0 0 2-27 2-26 0-56-2-29-2-58-1-30 1-62 3-31 2-88 8l-57 4v1h-1v-3l1-2 1-3v-8h1v3l18-1q19-1 29-5 11-4 41-6t28-3 1-1q4 0 12-2 9-2 22-2 13-2 42-2h30l-6-1-7-1h5q4-2 4-2-1 0-1-1z" fill="#7e7e7e" stroke="#7e7e7e"/>
  <path d="m190 605l4 1t0 1h1q0 1 1 1l-3 3q-3 3-5 3h-1v-6q0-4 3-3z" fill="#424242" stroke="#424242"/>
  <path d="m865 689h7v1h5q5 0 4 1t-1 1h-10v1h-27v-1h1l1-1 1-1h6q6 0 13-1z" fill="#939393" stroke="#939393"/>
  <path d="m199 602h1q1 0 2 1 0 1 2 2 1 0 4 5 4 5 4 6v2q0 1-2 2-2 0-2 1h-1v-1q-1 0-1-1-1-1-2-1l-2 1t-1 1q-1 0-1 0v1t-1 1q-1 0-1 0v1q-1-1-1-1h-1q0-1 4-4 2-3 0-6l-2-2q0-1 1-4l1-2q-1 0-1-1v-1z" fill="#bababa" stroke="#bababa"/>
  <path d="m633 512v5h-1v8l-1 3-1 2h-4q-3 0-4 1t-4 1h-4l1-1q1-1 1-1h2q1 0 1-2 0-1-1-2h-2t0-2v-3l1-2 1-2v1q0 2 1 2t1-1q1-1 3 0 2 0 2-2t1-2q2 0 2 1 0 2 2 1t2-3 1-2z" fill="#5b5b5c" stroke="#5b5b5c"/>
  <path d="m533 419l27 1q28 2 58 6 30 6 55 12t26 6h1q0 1 1 2v1h3l2 1h2v1l-1 1v2h-4l-1-1h-1v-1h-4q-1 0-9-2t-10 3l-2 5q-1 0-2 0t-5 0-9 0q-6 0-7-2l-1-1-2 6q-2 6-3 7l-1 2v3l-1 1-1 1v1h-1v-4h1v-3l1-2q1-2 1-5 2-3 2-11t-4-10q-3-1-18-4l-15-3h-1q-1 0-10-2-10-2-46-3l-37-2h-4l-4-1h16l4-2q4-2 4-3z" fill="#a9a8a9" stroke="#a9a8a9"/>
  <path d="m822 558l2-1 4 2q4 1 4 2h1q1 0 1 1t-1 1q0 1 1 1h1l1-1 1 1q-1 1-1 1v2h1v1h1v1h2l8 9q8 10 12 18t5 9l1 1v2l1 1 1 1v1h-1l-1 1h-1v1h-1v-1h-8v-2h2q1 0 0-4l-1-4v-2q0-1-2-2-2 0-1-2 0-2-2-2-1 0-4-5-2-4-4-4h-1v-2q0-2-1-1h-2q0-1-1-1v-1q-1 0-3-2-3-2-3-4v-4q-1 0-1 0t-5-4l-5-2v-2h1q1 0 1-2-1-1-2-1-1-1 0-1z" fill="#111113" stroke="#111113"/>
  <path d="m154 609v-1h2q1 0 1 2 1 1 1 1v1q0 2 1 4v2h-2l-1-1-2-1h-2t-1-1 0-3l1-2q1 0 2-1z" fill="#343434" stroke="#343434"/>
  <path d="m602 409h2l10 1q11 0 14 1h3q0 1-6 1-6 2-5 2v1h-2q-2-1-18-2l-16-1 8-2q7 0 10-1z" fill="#616161" stroke="#616161"/>
  <path d="m168 595h3l1 2q0 2-2 1-3 0-3 1v1q-1 0-2 0l-2 1q-1 0-1 1-1 0-3-1l-2-2h1q1-1 1-1l3-1q2-1 6-2z" fill="#adadad" stroke="#adadad"/>
  <path d="m757 638h1l2 2q2 2 2 2v1q-1 1-1 1h-1t-1 1-3-2l-2-2 2-1q1-2 1-2z" fill="#252424" stroke="#252424"/>
  <path d="m180 634h2t0 1h1v1q1 1 0 2v1q-1 0-2 2-2 1-7 1l-4-1v-1t-1 0v-1q-1-1-1-1v-1l1-1q1-2 5-2 5 0 6 0z" fill="#787878" stroke="#787878"/>
  <path d="m753 643l1-2 2 2q2 3 3 2t1-1h1q1 0 1 0v-1l2-1q2 0 3-1h1v2q-1 1-1 1l-3 2q-4 1-3 2 1 2 1 2v1l-1 1q-1 2-1 3t-1 1h-1v-1h-1v-1h-1v-1l-1-1-1-1v-1h-2v-1h-1v-1q1 0 1-2 0-1 1-3z" fill="#bcbcbc" stroke="#bcbcbc"/>
  <path d="m450 430h1q1 0-19 17l-19 17q-1 0-1 0v1t-1 1l-23 19q-22 19-22 19h-1v1h-1v1h-6v-1l1-1h1v-1h-1v-1h5l1-1 1-1h1v-1q1 0 31-26l31-26h1v-1h2v-1l9-7q8-8 9-8z" fill="#ddddde" stroke="#ddddde"/>
  <path d="m582 545h45v5q-1 0-1 1v3q0 3-1 5v2q-1 0-1-1t-18-2q-18 0-102-1t-118 0l-35 1v-10l93-1q94-1 138-2z" fill="#464647" stroke="#464647"/>
  <path d="m228 586v-3h1q1 0 1 1t6 5 6 5 1 1l1 1h1v1h1v1h1v1h1v1h3-1v-2l-1-1-1-1v-1l-1-1-1-1v-1h-1q-1 0-1-1v-1l4 4q4 3 8 11t5 9l1 2v3l1 1 1 1v1h-3v-1h-1v-1h-1v-1h-1v-1h-1v-1h-1q0-1-1-1t-1-1-2-2l-2-1v-1h-1v-1h-1t0-1h-2v-1h-1v-1h1q0-1 0-1h-2t-3-4l-3-3v-2h-1v-1h-1v-1t-2-2l-2-2h-1v-1q-1 0-1-1-2-1-2-3zm32 29v1h-1q-1 0-1-2-1-1 0-1t1 1q1 1 1 1z" fill="#19181d" stroke="#19181d"/>
  <path d="m993 550l1-1h2l5 2q5 2 5 5 2 4 1 10t-5 11-5 6h-1v-3l-1-4q-1-3-1-4v-3q0-1-2-9 0-9 1-10z" fill="#bababa" stroke="#bababa"/>
  <path d="m820 619v1q-1 0-1 1h-1q-2-1-6-1-4-2-1-4l3-3t1-1h1q2 0 2 4 2 3 2 3z" fill="#50504d" stroke="#50504d"/>
  <path d="m707 647h5v2l-1 1v1h-7q-6 1-28 2l-21 1q-1-1-1-1v-1q1-2 2-2 2 0 14 0h12l10-1q10-1 15-2z" fill="#6d6c6d" stroke="#6d6c6d"/>
  <path d="m886 489v-1l20 2q19 2 19 3h-1q0 1-15 1h-15v-1t0-1v-2h-4q-4 0-4-1z" fill="#7e7e7d" stroke="#7e7e7d"/>
  <path d="m110 696v-2h1q1 0 1 1t2 1 3 1h1l4 1q3 0 8 1l5 1h3v1h-16l-15-1h-5v-1h3q3-1 4-1t1-2z" fill="#9d9d9d" stroke="#9d9d9d"/>
  <path d="m766 469l2 1h2l2 1 2 1h2l-5 1-5 1h2q3 0 1 2-3 2-3 5-2 3-2 4v1h-1l-1 1h-2v-1h-2v-10q0-1 0-4l1-3 1-1q1 0 2 0 2 0 4 1zm-7 8q0-1 0-1 1 0 1 0 0 1-1 1z" fill="#2a2a2c" stroke="#2a2a2c"/>
  <path d="m614 528l1-2h3q1 1 1 2 0 2-1 2h-4q-1 0 0-2z" fill="#d0d0d0" stroke="#d0d0d0"/>
  <path d="m350 550v7h-39q-39 1-71 1l-31 2h-10q-2 0-19-1-18-1-24 0l-5 1t-37 0-36 1v1h-2t-1-1q0-1-12-1h-12l1-1 1-1 63-3q62-3 69-4h7l79-1q79-2 79 0z" fill="#404041" stroke="#404041"/>
  <path d="m752 599h1l2 1q1 2 2 2 1-1 1 0v2q-1 2 0 2t1 1v1q-1 1 0 2v1h-1q-1-1-2-2 0-1-1-1t-1 2l-1 1h-1q-1 1-2 1h-1l-1-1h-2v-1l1-2 1-1v-1q0-1 2-4l2-2t0-1z" fill="#a6a6a6" stroke="#a6a6a6"/>
  <path d="m844 482v-2h6l8 3q7 3 8 3h1l1 1q1 1 2 2l1 1h-1q-1 0-3 1l-2 1h-14t2-2q2 0-4-3t-5-5z" fill="#2d2d2e" stroke="#2d2d2e"/>
  <path d="m176 572l10 2q10 2 19 6t11 6q3 1 6 5 3 3 6 6 2 3 2 3l1 2 1 1 3 6q3 5 4 6 1 0 1 1 0 2 1 2 1 1-1 2 0 2 1 2t2 3-1 4 0 2q3 0 3 3t-2 3-2 1 2 1 3 4q0 4 2 5t2 2-2 0q-2 0-4 6-2 5-2 6v1l-1 1-1 2v1l-7 8q-7 9-11 12-5 3-7 3-3-1-4 2-1 2-2 3t-3 1h-1l-1-1h-1v2h-1l-1 1h-1l1 1 1 1h-12q-11 0-23 1h-12q0-1-3-2t-16-2l-12-1v-1h-1v-1h-2l-1-1h-1v-5h1q1 0 5-1l4-1h1v-2h-1v-1h-1v-1h-1t-1-2l-2-1v-1t-2-2l-2-3v-1t-4-7-5-9l-2-1v-1q1-1-1-6 0-6 0-10t-2-5q-1-1-3-4l-2-3v-2q1-1 1-5l2-4v-2q1-1 1-1h3l1 1q1 0 1-1t2-2q1 0 1 1 1 1 5-6t10-13q6-5 11-8l5-4 16-4q16-4 16-4zm41 41v1h1v2l1 2v1l2 7q3 6 2 14-1 9-1 10v2l-2 2q0 3-1 3v1t-1 1l-4 5q-3 6-10 10-6 6-7 6h-1t-1 1-11 2l-9 2h-3l-3-1h-3q-2 0-10-4t-14-10l-6-6t-2-2l-1-3h-1q0-1 0-1v-1t-2-3l-1-4q-1 0-1-4l-1-3v-7q1-6 3-14l3-8v-1q1-1 7-9 7-9 8-10h2v-1h1l8-3q8-2 19-2 10 0 20 6 10 4 12 6t2 4 2 5q2 4 3 4z" fill="#444" stroke="#444"/>
  <path d="m789 586l1-2 6 1q5 1 6 2 0 1-1 2t-2 2l-1 1h-1q-1 0-3 1l-2 2v-1t-1 0v-1l1-1v-1h-1v-1h-3v-1q0-1 1-3z" fill="#acacac" stroke="#acacac"/>
  <path d="m755 630v-1h1q1 0 2 1h1v1h1v-1l-1 2q-1 2-1 3l-1 1v2t-1 2l-2 1-1 2q-1 2-1 3 0 2-1 2v2q-1 0-3-2l-2-3q0-1 0-1-1-1 0-3v-7h1l1 1q2 0 2-1 1 0 2 0 2 2 3-1 1-2 0-3z" fill="#8d8d8d" stroke="#8d8d8d"/>
  <path d="m144 646l2-1h5l2 1h1v1h-1v1h-1v1q0 1-1 1v1q-1 0-1 1 0 0-2 0-1 0-2-1l-2-2v-1q0-1 0-2z" fill="#5c5c5c" stroke="#5c5c5c"/>
  <path d="m150 603h2l-1 3q0 4 1 4l-1 2q-1 2 0 3t1 1-1 1v1l-2-1q-2-1-3 1 0 1-1 3v2h-1v-1 3t-1 1q-1 0-1 0v1q-1-1-2-4l-1-4v-1q1-1 1-3 2-2 5-6l3-4q1-1 2-1v-1z" fill="#b5b5b5" stroke="#b5b5b5"/>
  <path d="m37 590h2q1 0-1 2-2 0 1 1l3 1h2q3 0 2 2-1 0 0 1t4 1h4l-8 1q-8 1-9 1h-1v-1q0-1-1-1-1-1 0-2 1 0 1-1t-3-1-3-1l1-1h1q1 0 2-1h2v-1h1z" fill="#5c5c5c" stroke="#5c5c5c"/>
  <path d="m268 488h34l-4 3q-4 3-4 4h-5q-4-1-9 0h-6q-1-1-8-1-8 0-54 0h-50v-1h1v-1h4l33-2q33-2 68-2z" fill="#66676a" stroke="#66676a"/>
  <path d="m681 649h1v1h-12q-12 0-14 0-1 0-1 2v2h-1q-1 0-1-1-1-1-3 0l-2 1h-1q-1 0-3 0l-2 1v2h-1v1h-1l-1-2v-2l-1-1v-4h-1v-1h6q5 0 5-2t8-2q7 1 8 2 0 0 2 1 3 1 6-1 4 0 6-1 2 0 2 2 0 1 1 2zm-29-2q0-1 0-1 0 1 0 1z" fill="#27272a" stroke="#27272a"/>
  <path d="m633 474h1v1q-1 1-1 1h1v1h1l-2 8q-3 8-3 10v2l-1 2-1 2 1 1t1 0h1v1l-1 1-4 1q-5 1-64 2l-58 1h-7l-7-1q-7-1-9-1t-2-1-4-1-11 2q-7 0-11 1l-4 1h-4l-1-1v-1h4q3 0 3-5l1-5-1-2-1-1v-3l-1 3-1 3v-4q0-3-4-4h-4l2-1h4q1-1 1-5 1-5 4-13l3-8 1 1 1 1v-2l3-1q2 0 2 1t3 2q4 1 8 3 3 2 5 4 2 0 39 0 38 0 70 0 31 0 38 2 7 0 8 1 0 1 1 1z" fill="#8f9699" stroke="#8f9699"/>
  <path d="m130 622l3-8 1 1h1v1l1 2v1l-1 1-1 2v4l-2 4q0 4-1 5v3h-1q-2 1-2 3t-1 2v-7q1-6 3-14z" fill="#cdcccc" stroke="#cdcccc"/>
  <path d="m716 654v2q0 2-32 2l-32 1t-1 1q-1 0-1 0v1t-1 1h-3q-3 0-4-1l-2-1v-2h1v-1h1v2h1v1h3q1 0 1 0 1 0 1-3v-3l2-1q3-1 4 0 0 1 0 1h1l21-1q22-1 28-2h9q2 0 2-1 1-1 2 1 1 1 0 2-1 0-1 1z" fill="#202021" stroke="#202021"/>
  <path d="m130 654l-1-4 1 2q2 2 2 2l1-1q1-1 3-1 1 0 2 1h2v3l1 1 1 1-1 1v2q0 1 1 1 0 1 0 3v3q-1 0-4-5-3-4-4-4h-2q0-1 0-1v-1t-2-3z" fill="#bdbcbd" stroke="#bdbcbd"/>
  <path d="m699 428h9q2 0 2 1h1l3 3q3 2 8 4 4 0 10 1h5l31 10q30 11 31 11h1q0 1 1 2l1 2v1h-1v1h2v1h-1v2h1v1h-3v1l1 1h-3l-1-1h-2q0-1-1-1h-2t-40-11l-39-11-1-1h-3v-1h-4l-2-1q-2-1-14-4-13-4-12-8l1-4h-2l-1-1h-1q-1 0-2-1l-1-1h4q4 0 6 2t7 2q4 0 11 0z" fill="#585b5a" stroke="#585b5a"/>
  <path d="m936 684h3l3 1q2 1 6 1h4t-3 1l-3 1h-3q-3 0-18 1h-19q-3-1-6-1h-4v-1h4l5-1h13t8-1h9q1 0 1-1z" fill="#9b9b9a" stroke="#9b9b9a"/>
  <path d="m326 672v-2h2v2h12q11 0 19-1h8v1h15l3 1 3 1h-9q-9 0-28 1h-19v-1h-6v-2z" fill="#6d6d6d" stroke="#6d6d6d"/>
  <path d="m829 603l1 1v2h1v1h-1v3h-1v-1h-1v-1l-1-1-1-1-1-1h-1v-1q0-1-2-2t-2-1h-2v-1q0-1-1-1v-1q-1 0-3-2t-7-6l-5-3q-1-1-6-2l-6-1h-1q-1 0-7 0l-7 1h-3q-1-1-2-1t-7 2l-6 2v1l-1 1v1h-1v1h-1v1l-1 1h-2v-1l1-1v-4h1l1-1 1-1h1l6-4q6-4 10-4 4-2 16-1t20 5 14 10q4 6 6 8 0 2 1 3zm-56-19t0-1q1 0 1 1 0 0-1 0zm43 11l-4-5-3-1q-3-2-3-3t5 2q5 4 9 8 3 4 2 3-2 0-6-4z" fill="#d7d7d7" stroke="#d7d7d7"/>
  <path d="m752 619h7q5 1 6 1h1v1q0 1 0 3t-6 2h-9q-1-1-1-2v-3q1-2 2-2z" fill="#3c3a3b" stroke="#3c3a3b"/>
  <path d="m181 596l-1-1 7 2q7 1 9 3 2 1 3 2v1h-1q-2 0-2 1 0 2 0 3v1l-2-2q-3-2-5-2t-2 4v5h-1v-2l-1-1v-4q0-4-2-4h-2v-1q1 0 1-2t-1-3z" fill="#b9b9b9" stroke="#b9b9b9"/>
  <path d="m1022 457h2v246h-2q-3 1-28 1-24 0-32-2l-8-2h-5l2-2q2 0 3-1l2-1h-3l-3-1q-2-1-8-1h-7l-3-1h-2v-1h1l7-2q8-1 8-2l3-1q3-1 3-1l8-3q8-3 8-3 1 0 1-1h1v-1h2v-2h-1v-1h1v-4l-1-1-1-1v-1h-1v-1q-1 0-2-1-1 0-9-2l-9-1v-1h-4q-4 0-16-2t-37-2-32 0l-6-2h-2v-5q0-1 2-9t4-10l1-1h17q6-1 8 0h5l4-1h13q13-2 18-4t6-2h1l13-2q12-2 17-4t15-12q8-10 12-16 3-5 4-5h2q2 0 2-1v-1h1q1-1 5-6t5-11-1-10q-1-4-6-4h-6v-2h1l1-1h2q3-1 4-1 2 0 2-3t-5-22l-6-19q-1-1-1-1v-1t-1 0-6-2-33-5l-27-2q0-1-19-2l-19-2v-1q-1 0-1 0h-2q-1 0-8-3l-7-2h-1q0-1-8-3l-7-2-2-1q-2-1-25-9l-24-10h-1l-1-2q0-2 0-3t1-1 1 1q1 1 9 0 9 0 9 1 1 0 24 2 22 2 96 2 75 0 78 0 2 0 4-1zm-213-3t0-1q1 0 1 1 0 0-1 0zm188 97q0-1 0-1 1 0 1 0 0 1-1 1z" fill="#b8b7b5" stroke="#b8b7b5"/>
  <path d="m742 561h1v1l1 1v6l-9 10q-9 10-10 12-1 3-3 5-2 3-2 4v3h-1v1h-1v1h-1v1h-1v1l-1 1-1 1v5q-2 6-2 13v9q0 2-1 2h-1v1h-1v1h3v2h-8v-1h-1v-1h-1v-1l1-1v-2q1-2 3-16t7-24q5-11 12-20l8-9h1l1-1q1 0 1 0v-1h2v-1t1 0v-1h1l1-1h1t0-1z" fill="#0f0f13" stroke="#0f0f13"/>
  <path d="m217 613v1h1v2l1 2v1h-1v1l-1-1v-1h-2v2h-1v-2h-1v-1h-1q0-1 0-1 0-1-2-4-2-2-4-4-3-1-3-2-1-1-2-2h-1q-1 0-1-1v-1q-1-1-3-2-2-2-9-3l-7-2h-12q-4 1-6 2l-3 1h-1q-1 0-1 1h-1q-1 1-2 1h-1v1h-1v2h-2v-3l1-2v-1h2v-2h-2v-2l8-3q8-2 19-2 10 0 20 6 10 4 12 6t2 4 2 5q2 4 3 4zm-61-21q1 0 1 1t-1 1-1-1 1-1z" fill="#cdcdcd" stroke="#cdcdcd"/>
  <path d="m239 577v-3h2v1h1v1h8l30 2q31 2 51 2 19 1 20 2v3q1 1 1 1v3l1 9q1 9 1 11v2t-5 1q-4 0-3 1v1l4 2q4 0 7 13t3 13v4q0 3-17 4l-16 2h-5v1h-40v-1h-6q-6 0-6-1 0 0-11-19l-11-20v-1l-1-1v-1h-1v-1h-1v-2h2v1h1v3h1v1h1v1l2 1q2 1 2 2t1 1 1 1h1v1h1v1h1v1h1v1h1v1h3v-1l-1-1-1-1v-3h-1v-1h-1v1h-1q-1 0-1-2-1-1 0-1 2 0-2-7-4-8-7-12l-4-3v-1q-1 0-1 0 0-1-4-4-3-4-4-4h-1v-1h-1v-2h1l1 1h2q1 0 1-3zm78 49q1-2 2 0 1 1 2 1t1 1-4 1q-3 0-1-3zm-19 1q0-1 2-2 2 0 2 2t-2 2-2-2z" fill="#3f3f40" stroke="#3f3f40"/>
  <path d="m409 654h1v2q0 2 0 4v1h-1q-1-1-5 1l-4 1q0-1-3-1t-7 0q-5 2-10 1l-6-1v-1h1v-1h-4l1-1 1-1h-1v-1l1-1v-1h1l1-1h9q9 0 16 0 8 0 9 0zm-14 2q0-1 1 0 2 0 0 1-1 0-1-1z" fill="#262529" stroke="#262529"/>
  <path d="m169 656l2-2h3t0 1h1v4l-1 4v1t-1 0v1h-1q-1 1-3 0h-2v-7q1-1 2-2z" fill="#4b4a4b" stroke="#4b4a4b"/>
  <path d="m803 646v-2l1 1q2 1 3 2l1 1h4v1h1v1h4v1q0 1-5 4-4 3-8 3l-3-2h-2v-7q0-1 2-1 2-1 2-2z" fill="#939393" stroke="#939393"/>
  <path d="m22 555v-2l2 1q3 1 3 0 1-1 1 2 0 2 3 3 3 0 4 1 1 2 3 1h2q1-1 1-1h1q1 0 6-1l5-1-1 1-1 1h12q12 0 13 1v1h-2q-2 1-2 2 0 2-2 2h-1v2h2l1 1 2 1h5q5 2 9 0t4-2q1 0 1 0 1-1 1-1h1v-1l1 2q1 2 2 2t10 0h13v1h-1v1h-1v1h-1l-2 3q-2 2-2 3v1h-1v1h-1v1l-1 1v1q-1 0-1 0v1l-4 7q-4 6-6 10-2 3-2 4v12-2h1v-1h1v-1h1v-1h1v-1l1-1 1-1v-2h1v-1h1v2l-1 1v2h-1v3l-2 4q0 4-1 5v2l-3 9q-3 9-10 9-6 1-6 2 1 2 0 2h-2l-2-1-1-1h-5v2h-1q-1 0-2-1t-1-2q-1-2-6-1-4 2-4 0l-1-1q0-1-5-3t-5-1v1h-1t-1-2-4-7-4-5q-2-1-2 0-1 1-5-4l-6-6v-1h-1v-1h-1v-2h-1v-1h-1v-1h-1 3v1h1v1h1l1-1h1l18-1q19 0 19-1h7q8-1 11-1 3-2 4-4l1-2v-1l1 1 1 2v-5h-1v-1h-1v-1h-1v-1q-1 0-4-2t-4-1-4 1h-4t-9-2q-9 0-10-3 0-2-2-2h-1v-1q-1 0-1 0h-2l-2-1q-1-1-3-1t-5-2q-2-2-4-5-3-4-4-4t-1-1q1-1-1-7-1-6-3-7-2 0-1-1 2-1 2-2z" fill="#444" stroke="#444"/>
  <path d="m780 636h1l-1 2q0 2 3 3t4 2v4q1 3 1 4v1l-1 2-1 1v1h1t0 2q1 1-1 2t-2 3-4 2l-5-1h-3l-2-1h-1v-1h2v-1h1v-4h1l1 1t1 0v-1q1 0 3-5 2-4 2-7l-1-3q1 0 0-2-1-3 1-4z" fill="#abaaaa" stroke="#abaaaa"/>
  <path d="m757 467h-2q-2 1-6 2t-6 7l-1 6-1 1-1 1v3h-5v-1l1-1v-3l1-2q1-2 1-6 2-5 1-4-1 0-1-3l1-3 1-1q0-1 8 1 9 2 9 3z" fill="#282829" stroke="#282829"/>
  <path d="m408 671h11v1h5q5 0 5 1h-11q-11 1-20 1h-10l-3-1-3-1h7q7 0 19-1z" fill="#636363" stroke="#636363"/>
  <path d="m646 414l8 1q9 1 9 2t-5 2l-5 1h-1q-2 0-8-2h-6l-4-1-3-1 7-1q7-1 8-1z" fill="#606061" stroke="#606061"/>
  <path d="m875 722q0-5 4-4 4 0 4 4t-4 5-4-5z" fill="#939391" stroke="#939391"/>
  <path d="m742 605l1-2v1q0 1 1 2 0 0 0 2 0 1 0 4 0 4 0 4v5q0 2-1 2t-1-3q0-2-2 0v3l-1-1q-1-2-1-4v-5l1-1 1-2v-2q0-1 2-3z" fill="#cacaca" stroke="#cacaca"/>
  <path d="m141 661v-1l3 2q4 2 6 0 1 0 3 0 2 1 2 0 1-1 1-1 0-1 1-1h1l-1 2q-1 1-1 2h1q1 0 1 1t0 1h-1v2q1 2 1 3 1 1 2 1 2 0 2 1v1t-1 0v1q-1 0-1 1h-4v1l-1-1h-2l-1-1q-1-1-1-1-1 0-2 0-2 0-2-2-1-1-2-2l-2-2h-1v-1l1-1q0-1-1-1t-1-2q0-1 0-2z" fill="#e1e0e0" stroke="#e1e0e0"/>
  <path d="m450 668h124l-1 1-1 1h20v1h-22q-21 1-81 1l-60 1q0-1-5-1h-5v-1h1v-1h12q11-2 18-2z" fill="#646464" stroke="#646464"/>
  <path d="m894 687h2v1h4q3 0 6 1h4q0 1-15 2l-15 1t1-1-4-1h-5v-1h2l3-1h7q7 0 10-1z" fill="#979797" stroke="#979797"/>
  <path d="m700 444h4q3 0 4 0h1v1h1q1 1 2 0l1 1 40 11q40 11 40 11h1q2 0 2 1h2q1 1 1 1h2q1 0 1 0v1h1q1 1 1 1v1q0 1 11 5t12 5l1 1h2v1h1v1h1v1h1v1h1l-1 1-1 1h-4l-20 1-19 1h-17q-17 0-24 0h-8t-5-1l-5-1h5q5 0 5-1h10q9 0 9-1 1-1 1-1h2l1-1h1v-1q0-1 2-4 0-3 3-5 2-2-1-2h-2l5-1 5-1h-2l-2-1-2-1h-2l-2-1q-2-1-4-1-1 0-2 0l-1 1v-1q-1 0-1 0l-1-1q0-1-9-3-8-2-8-1l-1 1v-1q-1-1-1-1 0-1-9-4l-9-2t-2-1h-2q-1-1-5-2l-4-1v-2l1-1v-1h-2l-2-1h-3v-1q-1-1-1-2zm90 25q0-1 0-1 0 1 0 1z" fill="#828283" stroke="#828283"/>
  <path d="m719 459l1-3 9 2q9 3 9 4h-2q-3 0-6 2-2 0-4 4l-1 3h-1q0 1-3 1l-3 1v-2q0-2 0-3 0-2 0-1v1l-1 1-1 1v2-7l1-1q1-2 2-5z" fill="#333334" stroke="#333334"/>
  <path d="m856 602h1l1 4q1 4 0 4h-2t0-5q0-4 0-3z" fill="#5a5a5b" stroke="#5a5a5b"/>
  <path d="m736 462h2t1 1v7q-1 5-1 6 0 2-1 4l-1 2v3l-1 1v1h5v2q0 1-5 1h-8l-5-1h-6v-2h4v-1q0-2 3-8l2-7 1-3q2-4 4-4 3-2 6-2zm1 9q0-1 0-1 1 0 1 0 0 1-1 1z" fill="#8d8c8d" stroke="#8d8c8d"/>
  <path d="m34 540h1t-1 1-1 1h-1v10l1 1v1h2l2 1q2 1 3 1v1q1 1 2 1 0 1-1 2h-1q-1 0-1 1h-1q-2 1-3-1-1-1-4-1-3-1-3-3 0-3-1-2 0 1-3 0l-2-1v-3h-1v-1h-1v-7h2v-1h1v1h6l1-1q2-1 4-1z" fill="#202022" stroke="#202022"/>
  <path d="m571 649v-1h28v1h1v1h-3l1 1 1 1h4q4 0 4 1h-1v1h-4q-3 0-18 0h-16l-1-1-1-1h7l-3-1h-2l1-1q1-1 2-1z" fill="#2d2d2f" stroke="#2d2d2f"/>
  <path d="m925 693h5q0 1 2 1h10q6 0 8 1l3 1h3l-2 1q-1 1-3 1l-2 2h5l8 2q8 2 32 2 25 0 28-1h2v65h-1024v-65h34q33-1 41-1t15-1l8-1h9l15 1h45q12-1 23-1h15l48-2q48-2 48-2h32q32 0 61-1h30l44-1q45 0 77-1h32l86 1q86 0 97 1h26q16-1 26-1h18q7 0 10-1h55q25-1 30 0zm-50 29q0-5 4-4 4 0 4 4t-4 5-4-5z" fill="#e3e2e1" stroke="#e3e2e1"/>
  <path d="m731 600v-1h1v3h2v3q0 3 0 5v1h1v-1h1v2l1 1 1 1v12q-1 9 0 9t1 2q0 1 3 7 4 6 4 7v1q-1 0 0 1l1 1h1q1 0 1 1v1h-1q0 1 4 5 4 3 4 4h1v1h1q1 0 2 1h1q0 1 1 1 0 0 0 1h2q0 1 0 1h1l5 2q6 2 16 2 9 0 10-1h1q1 0 1-1h2l9-5q9-5 9-5t1 0v-1q1 0 1-1 0 0 1 0v-1q1 0 2-2 2-3 4-7l2-5v-1h1q0-1 0-1 0-1 1-2l1-2v-3h2v2h3l2-1h2v1l-1 2v10q0 1-2 4t-11 12q-9 10-16 13t-21 5-18 1-6 0h-1v-1h-1v-2h-1l-1-1-2-1h-1l-1-1q-1-1-6-3-5-4-14-14-10-12-11-13t-3-1q-1 1-1-1-1-2-1-1-1 0-2-1 0-1-2 1v3h-1v-1h-1v-3h-1q0-1 0-1-1-1-2-6l-1-4v-7q0-7 2-13v-5l1-1 1-1v-1h1v-1h1v-1h1v-1h1v-2l1 7 1 7v1h1v-1h1v-2l1-1 1-1v-2q0-2 2-3v-2h1v-1h1v-3h1zm-14 41q-1 0 0 1 1 2 1 0t-1-2 0 1z" fill="#505050" stroke="#505050"/>
  <path d="m746 647v-2h1l2 3q1 2 2 2v-1h1v1h2v1l1 1 1 1v1h-2v2h1v1h1l1 1q1 0 1 1t-1 1-1 1h1v1h2q1 1 1 2 0 2 1 2v1h-1q-1-1-2-1 0-1-1-1h-1q0-1-6-6-6-6-6-7v-2h1v1h1v2l1 1h1v2h2v-2h-1v-1h-1v-1q0-2-1-2 0 0-1-3z" fill="#aeaeae" stroke="#aeaeae"/>
  <path d="m805 626v-4h11t2 1l1 1q1 0 1 2v1l-1 1q-1 2-1 2h-6q-6 0-6-1 0 0-1-3z" fill="#3f3e3c" stroke="#3f3e3c"/>
  <path d="m0 228v-228h1024v457h-2q-2 1-4 1-3 0-78 0-74 0-96-2-23-2-24-2 0-1-6-1-4 0-10 1-5 0-4 2l1 2h-2q-1 0-31-11l-31-10q0-1-13-4l-13-4h-1q0-1-2-1h-2l-2-1-2-1h-4l-2-1q-3-1-8-2-4-1-15-3l-10-3q0-1-9-2l-8-1t-8-2l-7-1h-3q-3-1-14-1l-10-1v-1h-5q-5 0-42-1t-52 1h-15v1h-4q-5 1-11 1l-6 2h-3v1h-2q-1 1-6 2l-6 2h-2q-1 1-4 1-4 0-5 4t-5 6l-3 3h-1q0 1 0 1t-3 2l-3 2-1 1q-1 1-12 10l-11 9v1h-1v1h-1v1h-1v1h-1v1h-1v1h-2v-1l1-1v-1h1v-1h1l1-1q1-1 2-1v-1h1v-5 1h-1v1h-5l-4 1q-5 1-11 2t-53 2q-48 1-188 0l-140-1v-228z" fill="#989897" stroke="#989897"/>
  <path d="m762 590h1l1 2q0 1 1 2 1 0 1 1l-2 2q-1 1 0 2 1 0 1 1v3h-1q-1 0-1-1v-1h-1q-1-1-2 0l-2 1q0-1-1-1 0 1-3 0l-2-1t0-1h1v-1h1v-1l1-1v-4h3q2 0 2-1 1-1 2-1z" fill="#a1a1a1" stroke="#a1a1a1"/>
  <path d="m869 484v-1l7 2q7 3 8 3h2t0 1h1q0 1 3 1h4v2q0 1 0 1v1h-17q-17 0-21-1h-6v-1h15l2-1q2-1 3-1h1l-1-1q-1-1-2-2l-1-1h1q0-1 0-2 0 0 1 0z" fill="#656564" stroke="#656564"/>
  <path d="m67 519l25-5v1h-1v1h-1l2 1 2 1h9l1 1q2 1-8 2-11 1-14 2l-4 1h-7l-1 1-18 3q-18 4-20 4h-1l-1 1-1 1h-3v2h-2v-2h1l1-1 1-1h1l1-1 1-1h1t5-3q6-3 31-8z" fill="#6e6e6d" stroke="#6e6e6d"/>
  <path d="m766 634h3v1h1l-1 3q-1 2-1 2t0 1h-1q-1 1-3 2l-3 1v-2q-1-1-2-2l-1-2v-1h1v-1l3-1q2-1 4-1z" fill="#4b4947" stroke="#4b4947"/>
  <path d="m714 432l-3-3 13 4q13 3 13 4h-5q-6-1-10-1-5-2-8-4z" fill="#6f7170" stroke="#6f7170"/>
  <path d="m599 408h5v1h-2q-3 1-10 1l-8 2h-5l-9-1q-9-1-44-1l-36-1v-1h15q15-2 52-1t42 1z" fill="#626262" stroke="#626262"/>
  <path d="m148 617h2q0 1 0 1h2l3 2q3 2 3 2l1 1 1 1v3h-1v1h-6l-1-1q-1-1-2-1l-2-2h-1l-1-1h-1v-2q1-2 1-3t2-1z" fill="#393939" stroke="#393939"/>
  <path d="m486 409h4l36 1q35 0 44 1l9 1h-36q-36 0-43 1l-7 1h-5v1h-2q0-1-10-1l-10-1v-1h3l6-2q6 0 11-1z" fill="#464647" stroke="#464647"/>
  <path d="m113 583h1v1q0 1-1 1t-1 1q-1 2 0 1 2-1 3-1h1v2q0 2-4 8-2 5-4 8-2 2-1 3t1 2v1h-2v-1l-1-1q-1 0-1 1v1l-1 1-1 1v1h-1v1h-1v1h-1v1h-1v2-12q0-1 2-4 2-4 6-10l4-7q1-1 1-1h1t1-1z" fill="#141417" stroke="#141417"/>
  <path d="m218 657h1v1t-1 1l-4 5q-3 6-10 10-6 6-7 6h-9 2l1-1 1-1h3l1-1q1-1 2-1 2-2 8-8l7-6v-1h1q1 1 1 0 1 0 1-1v-1q1-1 1-1t1-1z" fill="#cecece" stroke="#cecece"/>
  <path d="m773 643v1l-1 6q-2 6-1 6t1 1h3l-1 1q-1 2-1 2h-1v1h-1v1h-2v1h-1q0-1-4-3l-4-2v-1h-1v-1q1 0 1-1t1-3l1-1 2 1q3 2 4-2 2-4 2-4v-2q1-2 2-2t1 1z" fill="#c6c6c6" stroke="#c6c6c6"/>
  <path d="m183 634v2q-1 0-1-1l-1-1h-1q-1 0-6 0-4 0-5 2l-1 1 1-3q1-4 3-5 1-1 4 0 4 1 5 2t2 3z" fill="#3f3f3f" stroke="#3f3f3f"/>
  <path d="m993 570h1v2q0 1 1 4l1 4v4q0 1-2 1h-1v-1q-1 0-1-7t1-7z" fill="#242425" stroke="#242425"/>
  <path d="m789 584h1l-1 2q-1 2-1 3v1h-3q-3 0-2 2l1 3h-2t-1-1l-1-1v-1q0-1-2-1h-2v-1h-1l1-1 1-1h-2v-4h7q6 0 7 0z" fill="#a7a7a7" stroke="#a7a7a7"/>
  <path d="m193 614l5-4 2 2q2 3 0 6-4 3-4 4 0 0-1 0 0 0-3 1-2 0-3-3-1-2 4-6z" fill="#353535" stroke="#353535"/>
  <path d="m468 432h1l-1 1v1h-2v1h-1v1h-1 5l9-2q8-2 56-1 49 1 55 1t11 1h4q0 1 4 1h3l15 3q14 3 15 3t1 1l-1 1q-1 0 1 2 2 3-2 14-2 11-3 12l-1 2v3h-2v-1h-1t1-1v-1h-1q-1 0-1-1-1-1-8-1-7-2-38-2-32 0-70 0-37 0-39 0-2-2-5-4-4-2-8-3-3-1-3-2t-2-1l-3 1v2l-1-1-1-1v-2l1-1q1-1 2-4 1-4 2-11l1-7 4-2q3-2 4-2z" fill="#adb4b7" stroke="#adb4b7"/>
  <path d="m756 609h1q0 1 1 1 0 0 0 1h1l1 1q1 2 1 2h1v2h-2q-1 0-4 1h-4q0-1 0-1t0-2l1-3 1-1q0-2 1-2t1 1z" fill="#323131" stroke="#323131"/>
  <path d="m631 411l7 1q8 2 8 2-1 0-8 1l-7 1h-6l-3-1h-2v-1q-1 0 5-2 6 0 6-1z" fill="#646464" stroke="#646464"/>
  <path d="m693 480l1-3h1v1h1v-1h1v1h2v1q-1 1-1 3v1l-1 2v3h-5v-3q0-1 1-5z" fill="#29292a" stroke="#29292a"/>
  <path d="m413 473v-1h2q1 0 1 0v1l-1 1-11 10q-12 10-12 12t0 2v6l1 1 1 1h18v-1h8q9-1 10-1h2t0 1h1v2q0 2 7 3 8 0 8-1 1-1 1-1l4-1q4-1 11-1 7-2 11-2t4 1 2 1 9 1l7 1h7l-4 1-4 1h-4v1h1v1h-4l51 2q52 1 52 1 0 1 13 1h13v1l-1 2-1 2v5h-1l-1 2q-1 2 0 2h2t-1 1l-1 1h-26q-25 0-57 2t-105 4l-73 2h-1v-2q0-3-1-3v-1q1-1 2-12 1-10-1-10h-2v-2h-1v-1h-1v-1h3l3 1 3 1h2v-1h1v1h2v1h1q0 1 7 1h7v-1q0-1 2-1h2v-1h-1v-1q0-1-2 0-1 0 0-2 0-1 0-2-1 0 15-15l16-14h1l1-1h1v-1h1z" fill="#7f7f80" stroke="#7f7f80"/>
  <path d="m52 528l18-3v1l-10 3q-11 3-18 6-6 4-6 5t-1 1h-2q-1-1-3 0l-1 1h-6v-1h-1v-2h1l1-1h1l-1-1-1-1h2v-1h1v-1h3l1-1 1-1h1q2 0 20-4z" fill="#303030" stroke="#303030"/>
  <path d="m198 662l2-1v2q1 1 3 1t2 0-1 1q0 1 0 1h-2q0 1-1 2v1l-5 3q-5 2-6 2-2 0-2 0h1v-2h1q2 0 4-4 2-3 2-4l-1-1h1q1-1 2-1z" fill="#d0d0d0" stroke="#d0d0d0"/>
  <path d="m151 600h-1q0 1 1 2-1 0-1 0v1l-1 1q-1 0-1 0v1l-3 4q-3 4-5 6 0 2-1 3v1l-2 2q-2 3-2 2h-1v-1l1-2 1-1v-1l-1-2v-1h-1l-1-1v-1q1-1 7-9 7-9 8-10h2v-1h1v2l3-1q3-2 2 0t-2 2-1 2q0 1-1 1-1 1-1 1z" fill="#d9d8d9" stroke="#d9d8d9"/>
  <path d="m188 546h6v1h-1v1h-1v1h1v1h-1v1h-7q-7 1-69 4l-63 3-5 1q-6 1-8 2h-1v-1q1 0 1-2v-2h2v1l1-1v-1h3q2-1 2-1l12-1q12-1 66-4 55-3 62-3z" fill="#121115" stroke="#121115"/>
  <path d="m274 495h2q0 1 0 1t-1 1q-2 1-2 1-1 1-13 4l-12 2h-6q-5 0-36 3l-32 3h-10q-4 0-25 2l-21 2h-6l2 1 1 1h7v2h-28l-2-1-2-1h1v-1h1v-1h2l1-1 1-1h1q1 0 16-6t32-9l17-3h50q46 0 54 0 7 0 8 1z" fill="#222128" stroke="#222128"/>
  <path d="m641 444l1-1 2 1q2 2 2 7t-1 7-1 4v1l-1 2-1 2v5-1h1v2l-4 11q-3 11-4 12l-1 2v2h-2v1h-1v1h-1v1h-2v-2l1-2 1-2v-2q0-2 3-10l2-8h1v-3l1-2q1-1 3-12 4-11 2-14-2-2-1-2z" fill="#c0c2c2" stroke="#c0c2c2"/>
  <path d="m298 491l4-3 3 2q3 1 3 6v6q0 1-1 1-1 1-1 2t-6 2h-7v-1q-1 0-1 0l-1-1v-1h1q2 0 1-4-1-3 0-4v-1h1q0-1 4-4z" fill="#262529" stroke="#262529"/>
  <path d="m758 679l1 1h1l2 1 1 1h1v2h1v1h-1l-2-1h-7 1l1 1 1 1h-5q-2 0-2-1 1-1-1-1-1-1-2 0v2q-1 0-8-6-8-5-58-4l-51 1v-1q0-1-4-1t-4-1-3-1q-2 0-2-1t-13-1h-13v-1h-20l1-1 1-1h12q12 0 37-1l25-1h26q24 0 34 0h15v-1h1v-1l-1-2-1-1v-2l-1-1-1-1v-1t-1 0q-1-1-2-1h-1v-1q0-1 1-1 1-1 0-2-1-2-2-1 0 1-2 1h-2v-1l1-1v-2h2q1 0 1-1v-2l1-2q2-2 2 0t1 2 1 1q1 1 2 1 0-1 1 0 0 1 3 3 2 1 12 13 9 10 14 14 5 2 6 3zm-40-31v1h-1v-1h-1l1-1q0-1 0-1 1 0 1 2z" fill="#454545" stroke="#454545"/>
  <path d="m464 413h2l10 1q10 0 10 1h1v1h10l-1 1q-1 1-2 1h-2v1h-1v1t-12 2l-12 2q-1-1-1-1 0-1-7 1h-7l-1 1h-1v-2h-3v-2h1l1-1h2v-1l1-1v-1l6-2q5-1 6-2z" fill="#444547" stroke="#444547"/>
  <path d="m317 626q1-2 2 0 1 1 2 1t1 1-4 1q-3 0-1-3z" fill="#686868" stroke="#686868"/>
  <path d="m737 624l1-8v2q0 2 1 4l1 1v-3q2-2 2 0 0 3 1 3t1-2v-2l1 1v1h2q1 0 2 1v1h-2q-2 0-2 8l1 8 1 3q1 3 0 3h-1v2q1 3 1 3 1 0 1 2v1h1v1h1v2h-1l-1-1v-1h-1l-1-1v-2h-1v-1h-1v-1q0-1-3-6-2-5-3-8-2-3-1-11z" fill="#6f6f6f" stroke="#6f6f6f"/>
  <path d="m146 636v-1h10v7h-2q-1 0-2 1h-2v-1t-1 0l-1-1v-1t1-2q0-2-1-2h-2z" fill="#454545" stroke="#454545"/>
  <path d="m207 620v1l1 3q0 2-3 2h-5q-2 0-2-2v-1q1-1 1-1h1t0-1q1-1 1-1h1t0-1l2-1q1 0 2 1 0 1 1 1z" fill="#343434" stroke="#343434"/>
  <path d="m785 590h6v1h1v1l-1 1v1q-1 1-2 4-1 2-2 2t-2-3l-1-2v-1t-1 0l-1-2q0-2 3-2z" fill="#2d2d2d" stroke="#2d2d2d"/>
  <path d="m432 431h1l-3 4q-2 4-3 4v1h-1v1h-1v1h-1v2h-1 4v1l1 1v1h1l-31 26q-30 26-31 26v1h-1l-1 1-1 1h-4l-1-1h-1v-2h1v-1h1v-1h1v-1h1v-2h1t9-10l8-9q1-1 1-1h1t0-1q1-1 1-1h1t0-1l5-5q5-4 6-4h1t0-1q1-1 1-1h1t0-1q1-1 1-1h2v-1h1v-1l11-9q11-9 12-10l1-1 3-2q2-3 3-3z" fill="#5a5d5d" stroke="#5a5d5d"/>
  <path d="m48 604h1v1q0 1-1 2-2 1 2 1 3 0 8 1h5q0 1-19 1l-18 1v-1h-1v-1h-1v-1h-1l1-1 1-1h1q2 0 2-1h1v1h2l7-1q8-1 10-1z" fill="#cecdcd" stroke="#cecdcd"/>
  <path d="m827 638v-1q1 0 1 1v1l1 1q1 2 1 2v4q0 2-5 9t-6 7h-1v-1q0-1 1-3 1-1-1-2-1 0 1-2 1-3 5-10l3-6zm1 7q0-1 0-1h1v1h-1z" fill="#b6b6b6" stroke="#b6b6b6"/>
  <path d="m566 651h4l3 1h-7l1 1 1 1h-15q-15 0-21 0h-6l-1 1h-1v-2h-1v-1h1v-2l6-1q6-1 18-1 10 1 10 2-1 2 2 2 4 0 6-1z" fill="#303031" stroke="#303031"/>
  <path d="m686 461l-4 12q-4 12-5 14v2h-5v-4q0-2 3-13l3-12h4q3 0 4 1z" fill="#2a2a2c" stroke="#2a2a2c"/>
  <path d="m700 452l1-1h1l1 1h4l4 1q4 1 5 2h1q0 1-6 2-6 2-9 11l-3 10h-2v-1h-1v1h-1v-1h-1v-1l1-2 1-1v-1q0-2-1-3 0-1 1-1t2-5q2-5 1-5t-1-2 2-4zm0 4t0-1 0 1z" fill="#28282a" stroke="#28282a"/>
  <path d="m745 614l1-3h2l1 1h1q1 0 2-1h1l-1 3q0 2 0 2t0 1h1v1h1v1h-2q-1 0-2 2v2h-1v-1q-1-1-2-1h-2v-1l-1-1v-3t1-2z" fill="#b2b2b2" stroke="#b2b2b2"/>
  <path d="m829 614v-2l1 6q2 6 2 5t1-1 1-1v-1 6q0 7 0 8v2h-2v3l-1 2q-1 1-1 2v1t-1 0v1q-1 0-1-3v-4q0-1-1-1h-1q-1-1-1-4-1-4-2-5l-2-1q0-1 2-1h2v-4l-1-3v-2h2v7h3v-4q-1-4 0-6z" fill="#7e7e7e" stroke="#7e7e7e"/>
  <path d="m850 655l2-3v4h2l6 2q7 0 32 0t37 2 16 2h4v1h-5l-4 1h-2q-2 0-2 1h-48q-7-1-22-1h-16l-1-1h-1v-4q0-1 2-4z" fill="#8c8b8a" stroke="#8c8b8a"/>
  <path d="m441 500v1q-1 0-1 1-1 0-4 1h-3v-1l3-2q2-2 3-1t2 1z" fill="#343435" stroke="#343435"/>
  <path d="m824 617h2v1q0 1-1 4v4h-2q-2 0-2 1h-1v-1q0-2-1-2l-1-1q-2-1-2-1h2q2-1 1-1 0-1 1-1v-1l1-1q1-2 2-2t1 1z" fill="#b8b8b7" stroke="#b8b8b7"/>
  <path d="m810 640t0 1h1q0 1 1 1 0 0 0 2v3h-1v1h-3l-1-1q-1-1-3-2l-1-1-2-2q-1-1-1-4 0-2 3-2t5 2q1 2 2 2z" fill="#3b3a38" stroke="#3b3a38"/>
  <path d="m768 644v-1h1q1 0 1 1v2t-2 4q-1 4-4 2l-2-1v-1t-1-2q-1-1 3-2l3-2q1 0 1 0z" fill="#333" stroke="#333"/>
  <path d="m200 645h1l3 2q2 1 2 2v4l-1 1v1h-1q-1-1-3-1l-2-1q0-1-1-1-2 0-4-3l-3-2 1-2q1-1 4-1t4 1z" fill="#454444" stroke="#454444"/>
  <path d="m350 554v-3h1v7l35-1q34-1 118 0t102 1q18 1 18 2t1 1l-1 4q0 4-1 7l-1 4v-2q0-1-1 0t-86 1q-86 1-133 0l-46-1t-3-3q-3-2-16 0-13 1-55 2l-41 1h-2v2q-1 1 0 4l1 2v2h-2v-2h-1v-1h-1v-1t-1 0q-1-1-1-1-1-1-3-2-1-2-12-8l-11-7h-3l-2-1-2-1h8l31-2q32 0 71-1h39v-3z" fill="#0b0a0f" stroke="#0b0a0f"/>
  <path d="m748 686v1q1 1 2 1h1l-5 1q-4 1-86 2l-83 1v1h-32q-32 1-77 1l-44 1v-1h-44q-43 0-82-2h-38l-2-1-2-1h1l2-1q2 0 2-3v-2h-1q-2 0-4-1l-3-1h-3v-1h-1v-1h-1v-1l63 2q63 1 103-1 39-2 122-2 84-2 90-1h6q0-1 0-1h50q50-1 58 4 7 6 8 6z" fill="#232325" stroke="#232325"/>
  <path d="m246 511h1v1h1l-2 1-3 1h4l5 1h4q0 1-90 5l-90 6h-6v-1l1-1h7l4-1q3-1 14-2 10-1 8-2l-1-1h19l22-2q21-2 25-2h4l-4-1-4-1h5q5 0 5-1h19q18 1 17 1t17 0q17 0 18-1z" fill="#525356" stroke="#525356"/>
  <path d="m199 560h2l2 1 2 1h3l11 7q11 6 12 8 2 1 3 2 0 1 0 1h1t1 1v1q1 0 2 1v1h1l2 2q3 3 3 4 0 0 0 1h1v1q1 0 1 0v1l1 1 1 1v1l1 1 1 1v2h1-3v-1h-1v-1h-1v-1h-1v-1h-1l-1-1q-1 0-1-1t-7-6l-6-4q-1-1-1-1-1-1-5-3t-17-8q-12-4-28-5l-15-1v1h-4q-4 1-13 3l-10 4h-2l-1 1h-1v-1h1v-1h1v-1h-1v-1h-1v-1h-1v-1h-1v-1h2v-1h1v-1h1q1 0 9-3l8-3 5-1q6-1 24 0 17 1 19 1z" fill="#898989" stroke="#898989"/>
  <path d="m717 455h1q2 1 2 1l-1 3q-1 3-2 5l-1 1v1q0 2 1 2t1-1 0 1q0 1 0 3v2l-1 2q-1 2-1 5v2l-1 2-1 2 1 1h1v2h-8l-9-1h-1v-1h-1v-2l1-2v-1q0-2 1-3v-1l3-10q3-9 9-11 6-1 6-2z" fill="#919191" stroke="#919191"/>
  <path d="m144 650v-1l2 2q1 1 2 1 2 0 2 0 1 0 1-1 1 0 1 1t-1 1v1h-1v2q0 1 1 2 2 0 3 1 0 1 1 1 1-1 1-1v3q0 1 0 2 0 0 1 0v2h-1q-1 0-2-2 0-1-2-2-1 0-2 0-2 2-6 0l-3-2v-1l1-1-1-1-1-1v-3h-1v-1h1v-1h1q0 1 1 1t2-2z" fill="#bababa" stroke="#bababa"/>
  <path d="m176 603v2t-2 3q0 3-2 3 0 0-3-5-2-4-1-4h5q3-1 3 1z" fill="#484848" stroke="#484848"/>
  <path d="m467 424h-1q-2 0-7 4-5 2-5 2-1-1-2-1h-1v-1q-1-1-1-1v-1t-1-2v-1h1v2h1l1-1h7q7-2 7-1 0 0 1 1z" fill="#46474a" stroke="#46474a"/>
  <path d="m712 636v-2l1 4q1 5 2 6v2q0 1-1 1h-7q-5 1-15 2l-10 1v-1h3l1-1q0-2 1-2 1-2 2-2t7-2q4-2 5-3t1-2h1v1l-1 1v1h1v1h1v1h8v-2h-3v-1h1v-1h1q1 0 1-2z" fill="#252327" stroke="#252327"/>
  <path d="m172 597l-1-2h9l1 1q1 1 1 3t-1 2l-1 1q-2 0-2 2t-1 2q-1-1-1-1v-2q0-2-3-1h-3t-2-1l-1-1v-1q0-1 3-1 2 1 2-1z" fill="#c9c9c9" stroke="#c9c9c9"/>
  <path d="m817 601v-1h1t1 0v1l3 6q2 6 3 8v2h-1q0-1-1-1t-2 2l-1 1t-2-4q-1-3-2-3 0 1-1 1h-1v-2q0-1 1-1 1-1-1-4v-2h-1v-3h1q1 0 1 1t1 0q2 0 1-1z" fill="#a6a6a5" stroke="#a6a6a5"/>
  <path d="m180 602l1-1v1h2q2 0 2 4v3l-1 4q-2 3-4 3-3 0-3 0h-1v-3q0-3 1-5v-2q1 0 1-2t2-2z" fill="#373737" stroke="#373737"/>
  <path d="m340 512h12q2 0 1 10-1 11-2 12v2q-1 2-1 3t-78 4l-77 3h-7q-7 0-62 3-54 3-66 4l-12 1h-2q-3 0-4-1 0-1 0 0-1 1-4 1h-5v-1l-1-1v-10h1t1-1 1-1h1t6-4q7-4 18-7l10-3h6l90-6q90-4 90-5l37-1q37-2 47-2z" fill="#808080" stroke="#808080"/>
  <path d="m839 582v-1h2q2 0 2 1t1 1 4 5q3 6 4 6 2 0 2 2-1 2 1 2 2 1 2 2v2h-1q0-1 0 3 0 5 0 5h1v1h-1q0 1 0 1h1l1 3q0 3 1 3h1l-1 1h-1v6h-2v-3h-1v-1h-1v-2h-1v1h-1l-1-2q-1-2-1-10-1-9-2-9t-3-7l-2-7h-1q0-1-2-1-1-1-1-2z" fill="#373737" stroke="#373737"/>
  <path d="m720 656v1l1 1 1 1v2l1 1 1 2v1h-1v1h-15q-10 0-34 0h-25l-1-1v-2h1v-1h1v-1l1-1h1v-1l32-1q32 0 32-2v-1h1q1 0 2 1 1 0 1 0z" fill="#838383" stroke="#838383"/>
  <path d="m356 574h-4v15-4h-1v-3q-1-1-20-2-20 0-51-2l-30-2h-8v-1h-1v-1l41-1q42-1 55-2 13-2 16 0 3 3 3 3z" fill="#18171d" stroke="#18171d"/>
  <path d="m785 618h5v1h1v1h1v2l1 1v1h-1q-2 0-3 0h-1l-1-1q0-1-4-1-4 1-4 2t-1 1h-1v-1q1-1 1-2v-1l2-2q2-1 5-1zm4 5q0-1 0-1 1 0 1 0 0 1-1 1z" fill="#3e3e3e" stroke="#3e3e3e"/>
  <path d="m124 680v-1l2 1q1 2 1 2h1v1h1v1h1v2h-1l-4 1q-4 1-5 1h-1v5h1l1 1h2v1h1v1h-5l-1 1h-1q-1-1-3-1l-3-1v-1q-1 0-1 0-1 0-2-1v-1q0-1-1-1v-3h1t0-1q1-1 1-1h1t0-1q1-1 1-1 1 0 7-1t6-3z" fill="#696968" stroke="#696968"/>
  <path d="m402 451v-1h2q1 0 0 2 0 2-1 2t-1 1h-1v1h-1q0 1-1 2-1 0-1 0v1t-1 1q-1 0-1 0v1t-1 1q-1 0-6 4l-5 5t-1 1q-1 0-1 0v1t-1 1q-1 0-1 0v1h-1q-1 1-1 1h-1v1q-1 0-7 6-6 5-12 5-5 0-6 1-2 1-1 1 1 1 1 2t-6 3l-7 2v4q0 1 1 1v2h-1v-1h-1q0-1-1-1-1-2-14 0-13 0-14-1l-1-1v-4q0-5-3-6l-3-2h-34q-35 0-68 2l-33 2h-4v1h-1v1l-17 3q-17 3-32 9t-16 6h-1l-1 1-1 1h-2l-25 5q-25 5-31 8-5 3-5 3h-1l-1 1-1 1h-1l-1 1q-1 0-1 1v1q-1 0-1 1h-1l1 1 1 1h-1l-1 1h-1v3h-2v7h1v1h1v5q0 1-2 2-1 1 1 1 2 1 3 7 2 6 1 7 0 1 1 1t4 4q2 3 4 5 3 2 5 2t3 1l2 1h2v1h1v1h1l-5 1q-5 1-5 1h-2v1h-2q-1 1-2 1h-1l-5 2q-6 2-7 2h-1l-1 1-1 1h-1v1h-1v1h-1v1h-1v3h7v1h2q2 1 3 1v-1l1 1-1 1-1 1h1v1h1v1h1v1h-1l-1 1h-1v-1h-1v-1h-3 1v1h1v1h1v2h1v1h1v1l6 6q4 5 5 4 0-1 2 0 1 0 4 5t4 7 1 2h1l1 2q2 2 0 2h-3v2h4q4 0 5-2 0-1 2-1h1l1 1q0 2 4 0 5-1 6 1 0 1 1 2t2 1h3l2 1 1 1 7 2q8 2 16 2 8 1 9 1h1q0-1 0-1l5 9q5 9 5 9v3l-4 2q-5 3-6 3l-6 1q-5 1-6 1t-2 1l-1 1h-1v2h-2v7h1v1h1v1h1v1h2v1h1v1h3l1 1v1h-4l-8 1q-7 1-15 1t-41 1h-34v-247l140 1q140 1 188 0 47-1 53-2t11-2l4-1h5v-1h1z" fill="#b6b5b3" stroke="#b6b5b3"/>
  <path d="m156 649l2-1h4v5l-2 3q-3 2-4 3 0 0-1 1-1 0-1-1-1-1-3-1-1-1-1-2v-2h1v-1q1 0 1-1h1v-1h1q0-1 2-2z" fill="#3c3c3b" stroke="#3c3c3b"/>
  <path d="m811 561h2q0 1 1 1l8 5q7 5 8 5t1-1q1-1 1-1t0 1h1v3q0 2 3 4 2 2 3 2v1q0 1 1 1l1 1q1 1 1 2h1l2 7q2 7 3 7t2 7q0 8 1 8t1 2q0 3 0 3v1l-4 10q-4 10-4 12v1l-1 1-1 2v2l-1 1-1 1v-10l1-2v-1h-2l-2 1h-1q-1 0-1 1v1h-2v-1l1-1v-4q0-1 0-8v-8q0-3-2-7l-1-4v-1h-1v-2l-1-1q-1-1-1-3-2-2-6-8-6-6-14-10t-20-5-16 1q-4 0-10 4l-6 4h-1l-1 1-1 1h-1v1l-3 3q-3 4-4 6-1 3-2 4v1l-1 2q-2 2-2 3v2l-1 2-1 1v1l-1-1-1-1v-2h-1v1h-1v-1q0-2 0-5v-3h-2v-3h-1v1h-1v3h-1v1h-1v2q-2 1-2 3v2l-1 1-1 1v2h-1v1h-1v-1l-1-7-1-7v-1q0-1 2-4 2-2 3-5 1-2 10-12l9-10h2l1-1h1v-1h1v-1l11-4q11-4 20-4 10-2 20 0 9 2 11 3z" fill="#484849" stroke="#484849"/>
  <path d="m754 686h1l3 1 2 1 1 1q1 1 3 2t6 1h3l1 1 2 1h-6v1h-10q-11-1-97-1l-86-1v-1l83-1q82-1 86-2l5-1h-1q-1 0-2-1v-3q1-1 3 0 1 0 2 1 0 1 1 1z" fill="#636363" stroke="#636363"/>
  <path d="m840 564h-3l-1-1q-1-1-2-1 0-1-1-1h-1q0-1-4-2l-4-2q-1-1-12-3-10-4-24-4-13 0-26 2l-13 3h-1l-1 1h-5l-2 1-2 1h-3v-1h1v-1h1v-1h1v-1h2v-1h1v-1l9-4q10-4 18-5 7-1 24-1 16 0 28 5t18 9q6 5 6 6 0 2-4 2z" fill="#878788" stroke="#878788"/>
  <path d="m339 500q1 0 1 1v2q0 1 0 1v1l1-1v-1h2q2 0 1 1 0 2 2 2 2 1 2 2v1h1v1h1v2h-10q-10 0-47 2l-37 1h-4l-5-1h-4l3-1 2-1h-1v-1l23-1q22-2 23-2 0 0 0-1h7q6-1 6-2t1-2q1 0 1-1v-2l1 1q1 1 14 1 13-2 15-2 1 0 1 0z" fill="#5a5a5b" stroke="#5a5a5b"/>
  <path d="m183 639l2 1q2 2 2 3t-2 1q-1 0-1 1 1 1 3 1t3 0 0 1h1l3 2q2 3 4 3 1 0 1 1h-1v2q-1-1-4-1-2-1-2 0v2l1 2 1 2v3h-1v-1h-1v-2l-1-1q-1-1-1-3-2-2-4-3t-4 1l-1 1v-1q0-1-1-1-2 1-2 1-1 1-2 1h-1v-1q-1 0-1 0t-2-1h-2q0-1-2-1h-1v2l-1 1v-5h3v-1h-1v-5t0-2l1-2h1q1 0 1 1t5 1 6-2q0-1 1-1z" fill="#c3c3c3" stroke="#c3c3c3"/>
  <path d="m630 653h8v1q0 1 1 1v1l1 2v2l4 1q4 1 5-1 1 0 2-1h1l-1 2q-1 1-2 2-1 0-1 1v1l1 1h-1l-25 1q-25 1-37 1h-129l-11-1q-10-1-8-1 1 0-2 0h-4v-3h-1v-1h-1v-3h2v1h32q32 0 44-1l12-1h4v-3q1-1 1-1h7q6 0 21 0h31q15 0 18 0h5q1-1 2 0 1 2 7 0 5 0 14-1z" fill="#8c8c8c" stroke="#8c8c8c"/>
  <path d="m678 572v1l-2 9q-2 9-3 10l-1 1v2h-1v1h-1v3q0 1-2 1-1 0-25 2l-24 1v-1h-1v-1l1-4q1-4 2-10l1-6 1-2 1-2v-2q1-1 21-3 20 0 26-1 7 0 7 1z" fill="#3f3f40" stroke="#3f3f40"/>
  <path d="m850 479v-1h3l7 2q8 2 8 3h1v1q-1 0-1 0 0 1 0 2h-2q-1 0-8-3l-8-3v-1z" fill="#656565" stroke="#656565"/>
  <path d="m618 605v1q0 1-109 4l-109 2 108-4q109-4 110-3z" fill="#9b9b9b" stroke="#9b9b9b"/>
  <path d="m890 683h6l5 1q5 0 11 1l5 1h-12l-5 1h-6q-3 1-10 1h-10q-4 0-14-2h-11v-1l17-1q18 0 24-1z" fill="#5b5b5b" stroke="#5b5b5b"/>
  <path d="m433 504h3q2 1 2 2t1 1q1 1 3 1h7t-1 1q0 1-8 1-7-1-7-3v-3z" fill="#3a3a3a" stroke="#3a3a3a"/>
  <path d="m749 592l3-3v3l-1 1v1h2l1-1q0 1 0 1h1v2l-1 1v1h-1v1h-1q0 1 0 1l-2 2q-2 3-2 4v1l-1 1-1 2v1l-1 3q-1 2-1 2t0-4v-4l-1-1-1-1t1-2v-2q1-1 2-4 1-2 4-6z" fill="#d1d1d1" stroke="#d1d1d1"/>
  <path d="m724 471h1l-2 7q-3 6-3 8v1h-5l-1-1 1-2 1-2v-2q0-3 1-5l1-2 3-1q3 0 3-1z" fill="#313131" stroke="#313131"/>
  <path d="m180 668q-5 0-4-4 2-4 3-3 1 0 4 4 2 3-3 3z" fill="#3b3b3b" stroke="#3b3b3b"/>
  <path d="m233 675l7-8h1l1 1h6q6 0 5 1t0 1q1 1 1 2 0 0-1 0v1q-1 0-1 1h-2l-1 1-1 1h-2l-1 1-1 1h-1l3 1h2v1h1v1h1v1h3l3 1q2 1 4 1h1v2q0 3-2 3l-2 1h-1l2 1 2 1h38q39 2 82 2h44v1h-30q-29 1-61 1h-120l-3 1q-2 1-3 1h-1v1l-1 1h-3l-1-1-1-1h1l1-1h1v-2h1l1 1h1q2 0 3-1t2-3q1-3 4-2 2 0 7-3 4-3 11-12z" fill="#2e2e30" stroke="#2e2e30"/>
  <path d="m131 637v-1l2 2q3 1 3 2v4h-1l1 1h1v1l1 2v4h1v1h-1q-1-1-2-1-2 0-3 1l-1 1t-2-2l-1-2q-1 0-1-4l-1-3q1 0 1-2t2-3h1v-1z" fill="#818182" stroke="#818182"/>
  <path d="m810 638l1-2 3 1q2 1 2 1 1 0 2 0h1q0 2 1 2 2 0 3-1h1l-3 5q-3 6-4 6h-1t0 1l-1-1h-2v-1h-1v-1h-1v-1h1v-3q0-2 0-2 0-1-1-1v-1q-1 0-1 0t0-2z" fill="#adadad" stroke="#adadad"/>
  <path d="m444 486v1h-2l-2 1-1 2q-1 1 0 2h2v2q-1 0-1 0l3 3q3 3 1 3-2 1-3 1v-1q-1 0-2-1t-3 1l-3 2h-1t0 1h1v1h-3q-1 0-10 1h-8l-1-1v-1h-2l-2-1q-1 0-2 0h-7v-1l-1-1v-1h1l1-1h1v-1h1v-1h1v-1t3-2q3-3 9-9 6-7 5-7t-1-1 1-1l1 1h1v-1h1v-1h1v-1h1v-1h-5q-1 1-1 1v1h-3l1-1v-1h1l1-1 1-1q1 0 2-2l1-3h1v-1q0-1 3-2 2-2 6-5t4-3h4q4 1 7-2 3-2 5-3 2 0 0 4 0 4-4 13-4 10-3 11 0 1-2 3-1 1-2 2 0 1 1 2 2 0 2 2zm-4-29v1h-1v1h-1v1h-1v-1h-1v-1q0-1 2-2 2 0 2 1z" fill="#9fa0a0" stroke="#9fa0a0"/>
  <path d="m210 618l2-2t0 1h1v1h1v2h1l1 6q0 6 0 6h-1q-1 0-3 1l-2 1v-2q0-2-1-2 0 0-1 0-2 2-3 2-1 1-1-1v-2q0-1-1-1h-1v-2h3q3 0 3-2l-1-3h1q0-1 2-3z" fill="#a8a8a8" stroke="#a8a8a8"/>
  <path d="m210 659l4-4 1 1q1 1 0 2v1h1v1q0 1-1 1h-3q-1 1-2 1 0 0-1 1h-1q0 1 0 1h-1t-1 1q0 1 0 1h-1t-1 1h-1v-1q1-1 1-1v-1t1 0q1-1 5-5z" fill="#9a9a9a" stroke="#9a9a9a"/>
  <path d="m611 432l15 3q15 3 18 4 4 2 4 10t-2 11q0 3-1 5l-1 2v3h-1v1h-1v1-5l1-2 1-2v-1q0-2 1-4t1-7-2-7l-2-1q0-1-1-1t-15-3l-15-3h-3q-4 0-4-1l4-1q3-2 3-2z" fill="#646262" stroke="#646262"/>
  <path d="m210 697l3-1h88t-48 2l-48 2 1-1v-1h1q1 0 3-1z" fill="#737373" stroke="#737373"/>
  <path d="m636 651h2v1t1 2v1h-1q0-1-8-1-9 0-14 0-6 2-7 0-1-1-2 0h-1v-1h1q0-1-4-1h-4l-1-1-1-1h3v-1h-1v-1h17q18 0 16 0-1 0 0 2 2 0 4 1z" fill="#323235" stroke="#323235"/>
  <path d="m57 643h-1q-2 0-2 1-1 2-5 2h-4v-2h3q2 0 0-2l-1-2v-1q0-1 5 1t5 3z" fill="#828281" stroke="#828281"/>
  <path d="m755 467h2l1 1t1 0v1l-1 3q0 3 0 4v2-1q2-1 2 1 0 1-1 3l-1 2v3h2v1t-1 1q0 1-9 1h-10v-5l1-1 1-1 1-6q2-6 6-7t6-2z" fill="#919192" stroke="#919192"/>
  <path d="m141 638l1-1v3q1 2 3 2 3-1 3-1l1 1q1 0 1 0v1h-1l-1 1h1v1h-3l-2 1q0 1 0 2v2q-1 2-2 2t-1-1h-1v1h-2v-4l-1-2v-1h-1l-1-1h1v-4q1 0 2-1 2-1 3-1z" fill="#adadad" stroke="#adadad"/>
  <path d="m459 436h2q1 1-2 11t-4 11l-1 1v2l-3 8q-3 8-4 13 0 4-1 5h-2v-1q0-2-3-2-2 0-2-1t3-3 3-3q-1-1 3-11 4-9 4-13 2-4 0-4-2 1-3 3t-2 2-3 1l-2 1-1 1-1 1h-1v1h-1v1h-1v-1h-1v-5h1v-1h1v-1h1v-1h1l9-7q9-8 10-8zm-22 20q0-1 1 0 2 0 0 0-1 1-1 0z" fill="#c2c1c2" stroke="#c2c1c2"/>
  <path d="m120 674v-1l2 3q2 2 2 2v2q0 2-6 3t-8 4-2 4v1h-1q-1 0-1-2 0-3 2-5 2-1 2-3v-2q1 0 6-3l4-2v-1z" fill="#919190" stroke="#919190"/>
  <path d="m846 662l2-2v3h1l1 1h16q15 0 22 1h7v1h-18v1h-11q-11 1-16 0-6 0-6-2t2-3z" fill="#575756" stroke="#575756"/>
  <path d="m449 493l1-3v3l1 1 1 2-1 5q0 5-3 5h-4v1l1 1h-3q-2 0-3-1-1 0-1-1t-2-1h-4q0-1 0-1v-1q0-1 1-1v1h3q3-1 4-1 0-1 1-1t3-1q2 0-1-3l-3-3-1-1v-1h2v1h1v1h2v3l2-1q2 0 2 0l1-3z" fill="#4c4d4d" stroke="#4c4d4d"/>
  <path d="m163 567v-1l15 1q16 1 28 5 13 6 17 8t5 3q0 1 0 1h1-1q-1 1 1 4 1 2 2 2v1h1l2 2q2 2 2 2v1h1v1h1v3h-1l-1-1-1-1h-1v3h-1v1h-1v1l-1-1-1-2t-2-3q-3-3-6-6-3-4-6-5-2-2-11-6t-19-6l-10-2h-10v-2q0-1-2-2l-1-1z" fill="#16161a" stroke="#16161a"/>
  <path d="m158 574l8-2h10t-16 4l-16 4q0-1 3-3 2-1 11-3z" fill="#2c2b2e" stroke="#2c2b2e"/>
  <path d="m761 667l5 2q6 1 20 1 13 0 14-1 1 0 0 1 0 2 0 2h-2q-1 0-1 1h-1q-1 1-10 1-10 0-16-2l-5-2h-1t0-1h-2q0-1 0-1-1 0-1-1z" fill="#cbcbcb" stroke="#cbcbcb"/>
  <path d="m857 612v-1l1 1q0 1 2 1l3-1h1v1h1v-1h1l1-1h1l2 3q1 2-2 3-2 1-2 2v1h-1v1h-1v1h3q1 0 4 0h3v2h1v1h1v2h-1q-1 1-3 1h-3v1h1v1h-1v1h-11q0-1-1-3l-1-3v-2h2q1 0 1-1l-1-1v-2h1l1-1h-1q-1 0-1-3l-1-3z" fill="#1d1c20" stroke="#1d1c20"/>
  <path d="m167 600l1 1q2 1 2 1h-2q-1 0 1 4 3 5 3 5 2 0 2-3 2-3 2-3t1 1v2q-1 2-1 5v3h1t3 0q2 0 4-3l1-4v1l1 1v2h1v1h1q2 0 5-3l3-3q0-1-1-1v-1q-1 0-1 0 0-1 2-2 0-1 2-1h1q0 1 1 1l-1 2q-1 3-1 4l-5 4q-5 4-4 6 1 3 3 3 3-1 3-1 1 0 1 0h1q1 0 3-2l2-1-2 3q-2 4 0 4h2v2h1q1 0 1 1l-4 1q-5 0-5 3t1 3h3q2 0 5 0h3q1 0 0 2t-3 2-3 0h-1v1l1 1 1 1v1q0 1-1 1h-1q-1-1-4-1t-4 1l-1 2h-1q0-1 0-1-1 0-2 0t-3 0q-1-1-1-2t0-3l-1-2v-3h1t0-1h-1v-1q-1-2-2-3t-5-2q-3-1-4 0-2 1-3 5l-1 3v1t1 1v1t1 1l-1 1q-1 2-1 2v5h1v1l-1 1q0 1 1 1t1 1h1v1l-2 2q-1 1-2 2v1h-2v-1q-1 0-1 0t-3 1l-3 1t-1 0v1h-1v-2q1-1 4-3l2-3v-5h-4l-2 1q-2 1-2 2h-1v1h-3v-2h2v-2h1v-1h1v-1h-1l-2-1h-2v-1h-1l1-1h3q1-1 2-1h2v-7h-11l-1-1h1v-1h2q2-1 3-1h2v-2h-1l-1-1q-1-1-2-1v-1h-1v-1h-2v-1h-1v-3 1h2l1 1h1l2 2q1 0 2 1l1 1h6v-1h1v-3l-1-1-1-1t-3-2l-3-2h-1l-1-1v-1h4l2 1 1 1h2v-2q-1-2-1-4v-3h1v1h1v2l2 2q0 3 1 3v1h6v-1h1v-3l-1-1-1-1v-1q0-1-2-5l-2-3v-1t-1 0v-1l2-1q1 0 2 0zm-1 52h1v2l-1 1q0-1 0-2-1-1 0-1z" fill="#c6c6c6" stroke="#c6c6c6"/>
  <path d="m647 654h1v3q0 3-1 3 0 0-1 0h-3v-1h-1v-4l2-1q2 0 3 0z" fill="#676664" stroke="#676664"/>
  <path d="m217 657v1q-1 0-1 0v1h-1v-1q1-1 0-2l-1-1v-4l1-1q1-2 1-8l1-5h1q1-1 2 0 2 1 0 8 0 7-2 9 0 2-1 3z" fill="#888" stroke="#888"/>
  <path d="m626 530h4v4q0 1-1 4l-1 2v5h-46q-44 1-138 2l-93 1v3h-1v-1q0-2-79 0l-79 1v-1h1v-1h-1v-1h1v-1h1v-1h1l77-3q78-3 78-4t1-3v-1q1 0 1 3v2h1l73-2q73-2 105-4t57-2h30q3 0 4-1t4-1z" fill="#0c0b11" stroke="#0c0b11"/>
  <path d="m830 608v-1h1l1 4q2 4 2 7v3q0 1-1 1t-1 1-2-5l-1-6q-1-1-1-2v-1h1v1h1v-2z" fill="#ccc" stroke="#ccc"/>
  <path d="m697 450h1t-4 2q-5 2-6 5l-2 4q-1-1-4-1h-4v-1q0-1-1-2l-1-1 2-5q2-5 10-3t9 2z" fill="#2f2f30" stroke="#2f2f30"/>
  <path d="m777 642h2l1 3q0 3-2 7-2 5-3 5h-3q0-1-1-1t1-6l1-6 1-1q1-1 3-1z" fill="#403f3e" stroke="#403f3e"/>
  <path d="m54 598l15 1q15 1 16 1t1 1v1l-1 2q-1 2-4 4-3 0-11 1h-12q-5-1-8-1-4 0-2-1 1-1 1-2v-1h2q2 0-9-1l-12-1h1l2-1 2-1h2v-1h9q8-1 8-1z" fill="#dcdcdd" stroke="#dcdcdd"/>
  <path d="m383 471h1l-2 2q-1 3-2 3t-9 9-8 9h-1v2h-1v1h-1v1h-1v1h-1v2h1l1 1h-1v2q-1 0-1 0v1h-1q0 1 1 1 0 1 1 2v2h-2l-3-1-3-1h-3v1-1q0-1-2-2-2 0-2-2 1-1-1-1h-2v1l-1 1v-4h-1v-4l7-2q6-2 6-3t-1-2q-1 0 1-1 1-1 6-1 6 0 12-5 6-6 7-6v-1l3-2q2-2 3-3z" fill="#666" stroke="#666"/>
  <path d="m132 658v-1h1q1 0 5 5 3 6 4 6h1l4 4q4 2 5 3l1 1h2l1 1h1v1h2l1 1 2 1h2q1 0 3 1l2 1h-1l4 1h3v2h-3l-3-1h-3q-2 0-10-4t-14-10l-6-6t-2-2l-1-3h-1q0-1 0-1z" fill="#d3d3d3" stroke="#d3d3d3"/>
  <path d="m151 560l-8 3q-8 3-9 3h-1v1h-1v1h-2v1l-6 5q-6 4-8 6t-2 2v1t-1 1h-1t-1 1h-1v-1q0-1 1-2h1v-1h1v-1h1v-1q0-1 2-3l2-3h1v-1h1v-1h1v-1h-13q-9 0-12 0h-3v-1h-1v-1h2t0-1h1q0 1 0 0v-1l-1-1q-2-1-2-2-1-1-8-1h-6l-1-1h-1v-1h38q37 0 37 0z" fill="#1e1d21" stroke="#1e1d21"/>
  <path d="m622 574v7l-1 6q-1 6-2 10l-1 4v4q-1-1-110 3l-108 4h-4q-3 0-22 0l-20-1v-2q0-2-1-11l-1-9v-2q0-2 0-1 0 0-1-1v-1q1-1 1-6v-4h4l46 1q47 1 133 0 85 0 86-1t1 0z" fill="#414142" stroke="#414142"/>
  <path d="m157 599l2-1 1 2q0 2 1 2 1-1 2-1v1q1 0 1 0v1l-3 2q-3 2-2 3v1h-1v2t-1-1q0-2-1-2h-2v1q-1 1-2 1t-1-2q1-1-1-2l-2-1v-1t1 0l1-1v-1t1 0h1t0-1h1v-1h1q1 0 3-1z" fill="#c4c4c4" stroke="#c4c4c4"/>
  <path d="m400 663t-6 3q-6 2-14 3l-8 1v-1h-2q-2-1-6-1h-4l-1-1v-1h-4v-1h-1v-2h8q6 1 8 1h3v-1h1v-1l6 1q5 1 10-1 4 0 7 0t3 1z" fill="#2e2d30" stroke="#2e2d30"/>
  <path d="m797 592h1t1 1l1 1v4t-2 4-5 4h-3v-2q0-2 1-6l1-3 2-2q2-1 3-1z" fill="#413f3e" stroke="#413f3e"/>
  <path d="m780 592v2q0 1-3 2h-3q0-1 0-2 0-2 1-2l1-1h2q2 0 2 1z" fill="#282828" stroke="#282828"/>
  <path d="m802 587l5 3q5 4 7 6t3 2v2h-1t-2-2-2 0-1 2-1 1-2 0q-3-1-4-1-2 0-3-1l-1-1v-4l-1-1q-1-1-1-1l1-1q1-1 2-2t1-2z" fill="#8e8d8d" stroke="#8e8d8d"/>
  <path d="m144 625h1v1h2v1h1v1q1 0 2 1l1 1h1v2h-2q-1 0-3 1h-2q-1 0-1 1h-2v-7q1-1 1-1 1-1 1-1z" fill="#2a2a2a" stroke="#2a2a2a"/>
  <path d="m570 671h35q13 0 13 1t2 1q3 0 3 1t5 1q4 1 4 1t-1 0v1h-5q-6-1-90 1-83 0-122 2-40 2-103 1l-63-2h-2l-3-1h1l1-1 1-1h2l1-1 1-1h2v1q-1 1 22 1t40-1h37q19-1 28-1h19q9 0 20-1h11l60-1q60 0 81-1z" fill="#3b3b3c" stroke="#3b3b3c"/>
  <path d="m198 655h1v1h1q2 0 1 2t-1 2v1l-2 1q-1 0-2 1h-1v-1q-1 0-1 0v-2l-1-2-1-2v-2q0-1 2 0 3 0 4 1z" fill="#444" stroke="#444"/>
  <path d="m104 681l6-1v2q0 1 0 2v1t-1 1q-1 0-1 0v1t-1 1v2q-1 1 0 1 0 1 1 1v1q1 1 2 1 0 0 0 1h1l-1 1q0 1-1 2-1 0-4 1h-3l-1-1h-3v-1h-1v-1h-2v-1h-1v-1h-1v-1h-1v-7h2v-2h1l1-1q1-1 2-1t6-1z" fill="#a1a09e" stroke="#a1a09e"/>
  <path d="m46 587v-1h2q2 1 2 3 1 3 10 3 9 2 9 2h-20v1h-1v2h2l2 1h-2q-3 0-4-1t0-1q1-2-2-2h-2l-3-1h-3v-3h1l5-1 6-1h-1q-1 0-1-1zm-7 3q1 0 1 0-1 0-1 0z" fill="#727272" stroke="#727272"/>
  <path d="m191 659l1 1v2t0 1h1v1q0 2-3 2-2 1-6-5l-3-6 1-1q2-2 4-1t4 3q0 2 1 3z" fill="#464646" stroke="#464646"/>
  <path d="m289 495h4v1q-1 1 0 4 1 4-1 4h-1v1h-3q-4 1-19 1t-18-1l-3-1 12-2q12-3 13-4 0 0 2-1 1-1 1-1t0-1h4q5-1 9 0z" fill="#4c4d55" stroke="#4c4d55"/>
  <path d="m516 656h5v2h-1l-12 1q-12 1-44 1h-32v-1l1-1 1-2v1h1v1h1v-1l1-1h1v-2l5-1q5-1 13-1 9 0 22 0t16 0 4 0q2 0 2 1t4 1q4-1 4 0t2 1q1 1 6 1z" fill="#2c2c2e" stroke="#2c2c2e"/>
  <path d="m747 623h3v1q0 1 1 2h-1v2h3l1 1h1q0 1 1 1v2q0 1-1 2-1 2-3 0-1 0-2 0 0 1-2 1l-1-1h-1v5l-1-8q0-8 2-8z" fill="#7f7f7f" stroke="#7f7f7f"/>
  <path d="m26 594l5-2-1 1q0 1 3 1t3 1-1 1q-1 1 1 2 1 0 1 1-1 0-1 1h-1l-2 1-2 1h-1l12 1q11 1 9 1h-3q-2 0-10 1l-7 1h-2v-1h-1q0 1-2 1h-1l-1-1v1q-1 0-3-1h-2v-1h-7v-3h1v-1h1v-1h1v-1h1l1-1 1-1h1q1 0 7-2z" fill="#818080" stroke="#818080"/>
  <path d="m124 574l6-5h1v1h1v1h1v1h1v1h-1v1h-1v1l-8 5q-8 5-8 6 0 0-1 0v1h-1q-1 1-2 1t0-2l1-2h1t0-1v-1t2-2 8-6z" fill="#929195" stroke="#929195"/>
  <path d="m717 490h13l5 1q5 1 5 1h-6q-7 0-28 2l-20 2h-6 1l-1-1h-1v-1h2l1-1 1-1h2l1-1h12q9-1 19-1z" fill="#767676" stroke="#767676"/>
  <path d="m214 658h1v3l-1 1q0 2-3 4-3 1-8 6-6 4-7 5l-1 1h-1t1 1l1 1t-1 1-11 2l-9 2v-2h-3l-4-1h1l-2-1q-2-1-3-1h-2l-2-1-1-1h-2v-1h-1v-1h5v-1h1v-1h1l6 1q6 1 6 0v-1h5q5 0 6 0h2q1 0 1 0v-1h1q1 1 2 1t5-3l4-2h1q0-1 0-1l1-1h1q1-1 1-1h1t0-1q1-1 1-1h1t0-1h1q1-1 3-3 1-2 2-2zm-25 22h2q1 0 0 0h-3 1z" fill="#e3e3e3" stroke="#e3e3e3"/>
  <path d="m360 646v-3l2 4q2 4 2 4 2 0 3 2 1 1 3 1 3 0 3 1v1l-1 1v1h1l-1 1-1 1h4v1h-1v2h-1v1h-3q-2 0-8-1h-6v-1h-1l-2-1-2-1h6l3-1 4-1h-7l-7-1q-7-1-8-1-1-2-2-1 0 1-1 1t-1-1-1 1q0 1-1 1-2 0-2-1t-5-2h-5l-1-1h-1v-1h5l16-2q17-1 17-4z" fill="#2e2e32" stroke="#2e2e32"/>
  <path d="m895 665h41l3 3q3 4 4 8 1 3 0 3t-1 1v1h-1q-1 1-3 2l-2 1q-1 0-1 1h-9q-8 1-8 1h-1l-5-1q-6-1-11-1l-5-1v-1h3v-1h1v-1h1v-1h1v-4h-1l-1-1h-3v-1h-1q0 1-6-2l-5-3h-7v-1h-1v-1h18v-1z" fill="#5b5a5a" stroke="#5b5a5a"/>
  <path d="m632 501v-1h2v2l-1 2v4q1 3 0 3v1q-1 0-1 2t-2 3-2-1q0-1-2-1-1 0-1 2t-2 2q-2-1-3 0 0 1-1 1t-1-2v-2h-13q-13 0-13-1 0 0-52-1l-51-2h4v-1h-1v-1h4l4-1 4-1 63-2q63-1 63-2v-1t1-1v-1h1z" fill="#9d9c9d" stroke="#9d9c9d"/>
  <path d="m215 632h1v2q0 2 1 2v1l-1 5q0 6-1 8l-1 1v4l-3 3q-3 3-3 4v1q0 1 0 1h-1l-1 1q0 1-1 2h-2l-1 1t0 1h-1v-1q1-1 0-4l-1-3v-1t1-2-1-2h-1v-1h-1v-2h1l2 1q2 0 3 1h1v-1l1-1v-4q0-1-2-2l-3-2q1 0 1-1v-1l-1-1-1-1v-1h1q1 0 3 0t3-2 0-2h-1l2-1q2-1 2-1l2-1q2-1 3-1zm-11 32h1t-1 1-1-1q0-1 1 0z" fill="#aaa" stroke="#aaa"/>
  <path d="m164 663l1-4h2v8q0 1 1 2 2 1 2 1v1h1v1l1 1q0 1 2 1h1v1q0 1-7 1h-8v-2q0-1-2-2 0-2-1-4v-2h1t0-1h1v1h3l1 1q1 0 1-4zm5 10h1q0 1 0 1h-1v-1z" fill="#bfbfbf" stroke="#bfbfbf"/>
  <path d="m543 412h41l16 1q16 1 18 2h4l3 1h6l3 1 4 1h6q6 2 8 2h1l3 1 2 1h5q5 2 7 2h1l1 1q1 1 2 1h1l1 1h2l-1 4q-1 4 12 8 12 3 14 4l2 1h4v1h3l1 1h-6l-1-1q-2-1-4-1h-3q-1 0-26-6t-55-12q-30-4-58-6l-27-1h-15q-14 1-20 1h-7v-1h1v-1h2q1 0 2-1l1-1h-10v-1h1v-1h5l7-1q7-1 43-1z" fill="#272729" stroke="#272729"/>
  <path d="m85 596v1h1v1h1v1h1v5l-1-2-1-1q0-1-1-1t-16-1l-15-1h-2l-2-1h-2v-2h1v-1h24q3 0 4-1t4 1 4 2z" fill="#3f3f3f" stroke="#3f3f3f"/>
  <path d="m518 419h15q0 1-4 3l-4 2h-16l4 1h4q0 1-9 1t-24 3l-15 3h-1q-1 0-4 2l-4 2h-1q-1 0-10 8l-9 7h-1v1h-1v1h-1v1h-1t-6 5l-6 5t-1 0v1h-1l-3 3q-3 2-3 3l-1 1h-2v1h-1v1h-1l-1 1h-1v-1l1-1v-1h1v-1h1v-1h1v-1h1v-1h-1l-1-1-1-1q1-1 1-1 1-1 1-1l19-17q20-17 19-17h-1t0-1h2q1 0 2 1 0 0 5-2 5-4 7-4h1l12-2q12-2 12-2h7q6 0 20-1z" fill="#abaaab" stroke="#abaaab"/>
  <path d="m780 594v-1l1 1q1 1 1 1l1 4q1 4 0 5l-1 1v1h-5v-1h-1q0-1-1-3l-1-2v-4h3q3-1 3-2z" fill="#4d4c49" stroke="#4d4c49"/>
  <path d="m171 654v-1l3 1q2 1 3 0 1 0 3-1 1 0 1 1v1l3 6q4 6 6 5 3 0 3-1-1-1-1-2v-1h2t1 0v1l1 1q0 1-2 4-2 4-4 4h-1v2h-3q-1 0-6 0h-11v-1h1v-1h1v-1h-1v-1h2q1 0 1-2v-4q1 0 1 0v-4q0-4-1-5l-2-1zm9 14q-5 0-4-4 2-4 3-3 1 0 4 4 2 3-3 3z" fill="#c8c8c8" stroke="#c8c8c8"/>
  <path d="m326 669v4h-18q-19-1-36-1-16 0-16 0l1-1h1q0-1 0-1 1 0 1-1h1q0-1 0-1 1 0 1-1l5 1q5 2 17 1 13-1 13-3 0-1 14-2 14 0 15 2t1 3z" fill="#979797" stroke="#979797"/>
  <path d="m762 601h1v1h1t0 1h2v1l2 2q2 1 2 1v1h1v1h1v2l-1 1-1 1v1h-5v-1q-1 0-2-2l-2-1v-1h-1v-1h-1q-1-1-1-1v-1t0-2v-2l2-1q1-1 2 0z" fill="#3a3938" stroke="#3a3938"/>
  <path d="m791 468h3t0 1h2q1 1 2 1h2t0 1h2q1 1 2 1l12 3q11 3 19 4t9 1v2q-1 2 5 5t4 3q-2 2-2 2h-1v1h-17q-17-1-31-1h-13l19-1 20-1h4l1-1 1-1h-1v-1h-1v-1h-1v-1h-1v-1h-2l-1-1q-1-1-19-7-18-8-17-8z" fill="#1f1e20" stroke="#1f1e20"/>
  <path d="m450 417h2v1l-1 1v1h-2l-1 1h-1v2h2v1q1 2 1 2v1t1 1v1h-1q0 1 0 1-1 0-9 8l-9 7v1h-2v1h-2v-1l-1-1v-1h-4 1v-2h1v-1h1v-1h1v-1q1 0 3-3l2-4t1 0v-1l3-3q4-2 5-6t5-4q3 0 4-1z" fill="#525255" stroke="#525255"/>
  <path d="m137 621l2-2 1 3q0 2 0 3t2 1h1v4q0 4 1 3h1v1q1 1 1 1v1h-2q-2 0-2 1l-1 1q-1 0-3 1-1 1-2 1 0-1-3-2l-2-2v-1q1-1 1-5l2-4v-3h1q0 1 2-2z" fill="#c1c1c1" stroke="#c1c1c1"/>
  <path d="m793 624v2l-1 1v1q0 1-4 2l-3 2h-3l-1-1q-1-1-3-3l-1-3h1q1 0 1-1t7-2q6 0 6 1t1 1zm-4-1q1 0 1 1t-1 1-1-1 1-1z" fill="#757575" stroke="#757575"/>
  <path d="m144 636h4q1 0 1 2-1 2-1 2v1t-3 1q-2 0-3-2v-3q0-1 2-1z" fill="#262626" stroke="#262626"/>
  <path d="m298 627q0-1 2-2 2 0 2 2t-2 2-2-2z" fill="#7a7a7a" stroke="#7a7a7a"/>
  <path d="m826 638h1l-3 6q-4 7-5 8-1 2 1 2 1 0 1 2-1 2 0 2v2q-1 0-1 0-1 0-1 1h-1q0 1 0 1t-9 5l-9 5q0-1-2-1-1-1 0 0v1q0 1-1 1h-1q0-1-16-2l-15-1h-1t0-1h-2q0-1 0-1 0-1-1-1v-1q-1 0-2 0h-2v-2h1v-2h-1v-1h-1v-4h-1v-1h-1v-2h3v1h1v1h1v1h1v1l4 2q4 2 4 3h2l2 1h3l5 1q4 0 4-2t2-3 1-2q0-2 0-2h-1v-1l1-1 1-2v1l1 3q1 2 3 2h3l1-1q1 0 1-1v-2l1-1v-3h1v6h2l3 2q4 0 8-3t4-3v-1t1-1q1 0 3-5l3-5q1 0 1 0v-1q0-1 2-1z" fill="#e0e0e0" stroke="#e0e0e0"/>
  <path d="m663 417l10 3q11 2 15 3 5 1 8 2l2 1h4l2 1 2 1h-7q-7 0-11 0-5 0-7-2t-6-2h-5q-2 0-7-2h-5l-2-1-3-1 5-1q5-1 5-2z" fill="#656565" stroke="#656565"/>
  <path d="m821 601h1q0 1 0 1h1q1 1 1 2v1h1l1 1 1 1 1 1v2q0 1 1 2v2q-1 2 0 6v4h-3v-7h-1v-2q-1-2-3-8l-3-6h1q0-1 1 0z" fill="#d9d9d9" stroke="#d9d9d9"/>
  <path d="m274 654h5l1-1h43l1 1h5q5 1 5 2t2 1q1 0 1-1 1-2 1-1t1 1 1-1q1-1 2 1 1 0 8 1l7 1h7l-4 1-3 1h-6l2 1 2 1h1v1h-2v2h-2q-2-1-10-1h-11q-3 1-3 4v2h-2v-1q0-1-1-3t-15-2q-14 1-14 2 0 2-13 3-12 1-17-1l-5-1h-1v-3l-1-1v-1h2l-1-1-1-1h-1v-1h-1v-1l5-1q4-1 5-3 0-1 1-1 1 1 6 1z" fill="#1a181e" stroke="#1a181e"/>
  <path d="m74 562h10q7 0 8 1 0 1 2 2l1 1v1h-1t-1 1h-1t-4 2-9 0h-5l-2-1-1-1h-2v-2h1q2 0 2-2 0-1 2-2z" fill="#aeadae" stroke="#aeadae"/>
  <path d="m943 688h3q0 1-8 2-7 1-7 2t2 1l2 1h-3q-3 0-32-1h-30v-1h10l15-1q15-1 15-2h15q15-1 18-1z" fill="#cbcaca" stroke="#cbcaca"/>
  <path d="m234 600v-2h1l1 1 1 1h1v-1l3 3q3 4 3 4h1v2h1v1h1v1l1 1v1l11 20q11 19 11 19 0 1 6 1h6v1h-2l-1 1h-5q-5 0-6 1-2 1-6 2l-5 1v1h1v1h1l1 1 1 1h-2v1l1 1v4h-1v1h-1v1h-1v1h-2v2h-2v-1q-1-2 0-3t-5-1h-6l-1-1h-1v-1l1-2 1-1v-1q0-1 2-6 2-6 4-6 2 1 2 0t-2-2-2-5q-1-4-3-4t-2-1 2-1 2-3-3-3q-2-1 0-2t1-4-2-3-1-2q2-1 1-2-1 0-1-2 0-1-1-1-1-1-4-6l-3-6v-1h1v-1h1v-1z" fill="#16151a" stroke="#16151a"/>
  <path d="m775 584h-1q-1 0-2 1t-5 3l-4 2h-1q-1 0-3 2-2 0-3 1l-1 1h-1t0-1v-1q0-1 1-1l1-1 1-1v-1l7-3q7-3 9-2t2 1z" fill="#d5d5d5" stroke="#d5d5d5"/>
  <path d="m846 685h3v1h11q10 2 14 2h3l-3 1h-9q-7 1-13 1h-6l-1 1-1 1h-1v1h-3q-3 1-10 1h-8l2-3q3-3 12-4 8-1 10-2z" fill="#606060" stroke="#606060"/>
  <path d="m165 658v1l-1 4q0 4-1 4l-1-1h-3v-1h-2v-1q-1 0-1 0v-2q1 0 1-1h1q0-1 0-1l3-1q3-1 3-1t1 0z" fill="#343434" stroke="#343434"/>
  <path d="m938 664h2l4-1h5l9 1q8 2 9 2 1 1 2 1v1h1v1l1 1 1 1v4h-1v1h1v2h-2v1h-1q0 1-1 1 0 0-8 3l-8 3h-4q-4 0-6-1l-3-1h-2l-1 1h-1v-2l3-1q2 0 3-1h1v-1q0-1 1-1t0-3q-1-4-4-8l-3-3q0-1 2-1z" fill="#8e8d8b" stroke="#8e8d8b"/>
  <path d="m164 510h4l4 1h3q0 1-5 1h-5l4 1 4 1h-4q-4 0-25 2l-22 2v-2h-7l-1-1-2-1h6l21-2q21-2 25-2z" fill="#404046" stroke="#404046"/>
  <path d="m992 503q0 1 0 1h1l6 19q5 19 5 22t-2 3q-1 0-4 1h-4q0-1 0-1t-4 0-4 1-5 1-23 2q-17 2-56 7-40 5-41 6t-1 5 1 8l1 3 1 1 1 1v4h-2l-1-1h-2v-1h-1v-1h-2v-1h-1q0-1-5-5-6-5-6-6t-2-2l-2-1h-2v-1h-1q-1 0-1-1v-2q-1-1-1-1h-1q0-1-1-1t-1-1v-1h1q1 0 1 1 1 0 2 1l1 1h3q4 0 4-2 0-1-6-6-6-4-18-9t-28-5q-17 0-24 1-8 1-18 5l-9 4v1h-1v1h-2v1h-1v1h-1v1h-1v1h3l2-1 2-1h5l1-1h1v2h-1l-1 1h-2v3h-2q-1 0-1 1t-1 1h-1v-1t-1 0v1h-1q0 1 0 1v1h-3q-1 1-1 1l-1 1h-1q-1 1-7 6l-6 5v1h-1v1h-1l-1 1-1 1h-2v1h-1v-6l1-1 1-1v-1q0-1 3-6l3-4v-5h-1v1h-1v-1h-1v-1h-11q-10 0-12 2-1 2-9 19l-7 17-1 1-1 1v1h-1v-1h-4v1h-1v-3h1v-1h1v-2l1-1q1-1 3-10l2-9t1-5 2-7l1-2 4-2q4-3 4-3h1l1-1 1-1h1v-3h-1v-1h-1v-1h-1v-1h-63v3h-1v-5h1v-4l1-2q1-3 1-4v-1h1v-1l57-4q57-6 88-8 32-2 62-3 29-1 58 1 30 2 56 2 27 0 27-2 1-1 2 0 1 2 6-7 5-8 5-8z" fill="#09090c" stroke="#09090c"/>
  <path d="m98 635l3-9 1 3q2 3 4 2 1 0 1 5 1 6 1 11 2 5 2 6v1t-1 0v1q-1 0-9-1-8 0-16-2l-7-2-1-1-2-1h-2v-2h5l1 1 2 1h2q1 0 0-2 0-1 6-2 7 0 10-9z" fill="#1a1a1d" stroke="#1a1a1d"/>
  <path d="m800 458h2l24 10q23 8 25 9l2 1h-3v2h-6q-1 0-9-1t-19-4l-12-3t-1-1h-2v-1l-1-1v-1h3v-1h-1v-2h1v-1h-2v-1h1v-1l-1-2q-1-1-1-2z" fill="#5d5e5d" stroke="#5d5e5d"/>
  <path d="m517 425l37 2q36 1 46 3 9 2 10 2h1t-3 2l-4 1h-4q-5-1-11-1t-55-1q-48-1-56 1l-9 2h-5 1v-1h1v-1h2v-1l1-1 15-3q15-3 24-3t9-1z" fill="#5e5c5c" stroke="#5e5c5c"/>
  <path d="m331 664h11q8 0 10 1h3v1h4v1l1 1h4q4 0 6 1h1v2h-12q-8 1-19 1h-12v-4q0-3 3-4z" fill="#949394" stroke="#949394"/>
  <path d="m782 594h1t1 1l1 2q1 3 2 3t2-2q1-3 2-4 1 0 1 0v1l-1 3q-1 4-1 6v2h3q3 0 5-4t2-4l1 1q1 1 3 1 1 0 4 1 2 1 2-1 0-3 1-4 1 0 3 1 1 1 2 2h1q1 0 1 1v2q0 1-2 1h-4q-1 1-6 3l-4 2v1l-1 1-1 1 1 2q1 3 5 1 5-2 6-2 0 0 1-1h1t1 1h-1t0 1l-3 3q-3 2 1 4 4 0 6 1h1q1 0-1 1h-13v4q1 3 1 3 0 1 6 1h6t-2 2q-2 0-4 2l-1 2q-1 1 0 2 1 2 1 3v1h-1q-1 0-3-3t-5-3-3 2q0 3 1 4l2 2v2q0 1-2 2-2 0-2 1v1h-1v3l-1 1v1q-1 0-2-6t-2-6q-1-1-3 0l-3 1v-1q-1-1-4-3l-4-2q1 0 1 0v-1t1-1h1q1 0 2-2 0-1 1-2l3-2q4-1 4-2v-1l1-1v-3l-1-1v-2h-1v-1h-1v-1h-5q-3 0-5 1l-2 2q-1-1-2-1-2-1-2-2t-2-1q-1 1-2 2-1 2-2 1h-3q-1 0-6-1h-5v-1h-1v-1h3q3-1 4-1h2v-2h-1t-1-2l-1-1v-1h-1v-1h-1v-1l1-1v1h2v1h1v1l2 1q1 2 2 2v1h5v-1l1-1 1-1v-2h-1v-1h-1v-1t-2-1l-2-2v-1h-1v-1h-2v-2h2v1h1l1 1h1l1 1 1 1h2v-7h2v3l1 2q1 2 1 3h1v1h5v-1l1-1q1-1 0-5l-1-4q0-1 0-1zm29 6t0-1q1 0 1 1 0 0-1 0z" fill="#c3c2c2" stroke="#c3c2c2"/>
  <path d="m159 567h4l1 1q2 1 2 2v2l-8 2q-9 2-11 3-3 2-3 3l-5 4q-5 3-11 8-6 6-10 13t-5 7h-6l-1 1h-2v-2l1-1 1-1v1h2v-1q0-1-1-1l-1-1v-1q0-1 2-3t5-8 3-7l-1-1v-1q1 0 1 0 0-1 8-6l8-5h1l1-1h2l10-4q9-2 13-3z" fill="#1c1b1f" stroke="#1c1b1f"/>
  <path d="m994 549v1h-1q-1 1-1 10 2 8 2 9v1h-1q-1 0-1 7t1 7v1h-1q-1 0-4 5-4 6-12 16-10 10-15 12t-17 4l-13 2t1-1q0-1-10 0t-18 2q-7 1-11 1t-6 2l-1 2h-1t0 1h-1q-2-1-8 0h-7v-1h1v-1h-1v-1h3q2 0 3-1h1v-2h-1v-1h-1v-2h-3q-3 0-4 0h-3v-1h1v-1h1v-1q0-1 2-2 3-1 2-3l-2-3v-1l-1-1-1-1v-2l-1-1q-1-1-5-10-6-9-13-17l-8-9h-1v-1h-1v-1h-1v-1h-2v-1l-1-1v-1h1l1 1h1v1h1l1 1h1v1h1v1l2 1q1 1 2 2 2 0 4 3 1 2 4 6 3 2 3 3h1v1h2v1h1v1h2l1 1h2v-4l-1-1-1-1-1-3q-1-4-1-8t1-5 41-6q39-5 56-7 18-2 23-2t5-1 4-1 4 0 0 1z" fill="#3d3d3d" stroke="#3d3d3d"/>
  <path d="m167 667v-2h2q2 1 3 0h1v3q0 2-1 2h-2t-2-1q-1-1-1-2z" fill="#464646" stroke="#464646"/>
  <path d="m772 585h3l1 1q1 0 1 2 0 1-1 1l-1 1h1v1l-1 1q-1 0-1 2 0 1 0 2v1h-2v-2h-1q0-1-3 0h-2q0-1-1-1-1-1-1-2l-1-2 4-2q4-2 5-3z" fill="#a7a7a7" stroke="#a7a7a7"/>
  <path d="m626 554v-2t1 4v3h18q18-1 27 0h10l-1 2q-1 2-2 7t-1 5v-1q0-1-7-1-6 1-26 1-20 2-21 3v2l-1 2-1 2v-5l1-4q1-3 1-7l1-4v-2q1-2 1-5z" fill="#111016" stroke="#111016"/>
  <path d="m410 656v-2h13q13 1 13 2v1h-1v-1q-1 0-1 0l-1 2-1 1h-2v3t-1 1-5 1q-3 0-4-2-2-2-5-2h-3l-1 1h-1v-1t-1 0q1-1 1-4z" fill="#1d1c20" stroke="#1d1c20"/>
  <path d="m424 464v1q0 1-2 3t-2 3 0 1h4v1h-1v1h-1v1h-1v1h-1l-1-1q-1 0-1 1t1 1-5 7q-6 6-9 9-3 2-3 2v1h-1v1h-1v1h-1l-1 1h-1v1l1 1v1h7q1 0 2 0l2 1h2v1l1 1v1h-18l-1-1-1-1-1-2v-1h-2v-2h1l1-1h1t0-2q0-1 6-6 4-5 11-12l6-6 1-1q0-1 3-3l3-3h1v-1q1 0 1 0z" fill="#727171" stroke="#727171"/>
  <path d="m628 547v-2h30l30 1h3v1h1v1h1v1h1v3h-1l-1 1-1 1h-1t-4 3l-4 2h-10q-9-1-27 0h-18v-3q-1-4-1-4v-1q0-1 1-1v-1h1v-2z" fill="#464646" stroke="#464646"/>
  <path d="m854 620v1h1v1h1v3l1 3q1 2 1 3h1l-1 1q-2 2-4 10t-2 9v1l-2 3q-2 3-2 4v1l-2 2q-2 1-2 3t6 2q5 1 16 0h12v1h7l5 3q6 3 6 2h1v1h3l1 1h1v4h-1v1h-1v1h-1v1h-3v1h-6q-6 1-24 1l-17 1h-3q-2 1-10 2-9 1-12 4l-2 3h-10q-10 0-26 1h-16v-1h6l-2-1-1-1h-3q-4 0-6-1t-3-2l-1-1-2-1-3-1h3l-1-1-1-1h-1 7l2 1h2q2-1 6 0t18-1 21-5 16-13q9-9 11-12t2-4l1-1 1-1v-2l1-2 1-1v-1q0-2 4-12l4-10q0-1 0-1v-1q1 0 1 0 1 0 1 2z" fill="#393939" stroke="#393939"/>
  <path d="m824 557l-2 1q-1 0 0 1 1 0 2 1 0 2-1 2h-1v1q-1-1-2-1-2 0-4 0h-2q0-1-1-1h-2q-2-1-11-3-10-2-20 0-9 0-20 4l-11 4v1h-1v1h-1l-1 1h-2v-6l-1-1v-3h1l1-1h2l1-1h1v-2l13-3q13-2 26-2 14 0 24 4 11 2 12 3z" fill="#141417" stroke="#141417"/>
  <path d="m200 630l4-1v2q0 2 1 1 1 0 3-2 1 0 1 0 1 0 1 2v2t-2 1l-2 1h-2q-3 0-5 0h-3q-1 0-1-3t5-3z" fill="#303031" stroke="#303031"/>
  <path d="m439 490l1-2h4q4 1 4 4v4t-2 0l-2 1v-3h-2v-1h-1v-1h-2q-1-1 0-2z" fill="#c9caca" stroke="#c9caca"/>
  <path d="m771 595h1v9h-2l-1-1-1-1h-1l-1-1h-1v-1h-1q0-1 1-3l1-2h2q3-1 3 0z" fill="#2d2d2d" stroke="#2d2d2d"/>
  <path d="m698 450h3v1l-1 1q0 2 0 5t-2 8-2 7v1l-1 1-1 2v1l-1 3q-1 4-1 5v3h5v-1h1v1h1l9 1h14l5 1h-10q-10 0-19 1h-10v-1h-4q-3 0-8 1h-4v-2h5v-2q1-2 5-14l4-12 2-4q1-3 6-5 4-2 4-2z" fill="#808081" stroke="#808081"/>
  <path d="m670 599h2q2 0 2 1t-3 3q-3 1-27 3l-25 1v-4l24-1q24-2 25-2 2 0 2-1z" fill="#a3a3a3" stroke="#a3a3a3"/>
  <path d="m413 464v1q1 1 1 2v2h-1v1h-1v1h-1v1h-1v1l-1 1v1l-16 14q-16 15-15 15 0 1 0 2-1 2 0 2 2-1 2 0v1h1v1h-2q-2 0-2 1v1h-7q-7 0-7-1h-1v-1h-2v-1h-1v-2h-2v-1l1-1v-2h2v2h-1v1h5v-1h1v-1h1t22-19l23-19v1q1 0 1-1v-2t1 0z" fill="#979696" stroke="#979696"/>
  <path d="m706 558h11v1h1v1h1v-1h1v5l-3 4q-3 5-3 6v1l-1 1-1 1v6h1v-1h2l1-1 1-1h1v-1h1v-1l9-7q8-7 9-8l1-1h3l-1 1v1h-2v1h-1v1h-2v1h-1l-7 7q-7 8-12 17t-8 26-4 19v1h-1q0 1-1 2t-5 3q-6 2-7 2t-2 2q-1 0-1 2l-1 1h-4q-1-1-1-2 0-2-2-2-2 1-6 1-3 2-6 1-2-1-2-1-1-1-6 0-5 0-6 0 0-1-2 0-2 2-7 2h-6v1h1v2h-2q-2-1-4-1-1-2 0-2 2 0-16 0h-45v1q-1 0-2 1l-1 1h-2q-2 1-6 1-3 0-2-2 0-1-10-2-12 0-18 1l-6 1v2h-1l1 1q1 1 1 1-1 0-1 0v4h-3v-2h-5q-5 0-6-1-2 0-2-1t-4 0q-4 0-4-1t-2-1q-1 0-4 0t-16 0-22 0q-8 0-13 1l-5 1v2l-1 1q0 1-1 1h-1v-1h-1v-1h1q1 0-12-1l-13-1h-1q-1 0-5 0-5 0-5 1-1 1-12 0l-12-1-1 1h-1q0-1-3-1-2 0-3-1-1-2-3-2 0 0-2-4l-2-4v-1t-3-13-7-13l-4-2h-3v-2h5q6-1 6-1l20 1q19 0 22 0h4l109-2q109-3 109-4v-4h1v5l25-1q24-2 27-3 3-2 3-3t-2-1h-1v-1h4v1h1v-1l1-1 1-1 7-17q8-17 9-19 2-2 12-2zm-312 96t2 0q1 0 0 0t-1 0q-1 0-1 0z" fill="#414141" stroke="#414141"/>
 </g>
</svg>
