<?xml version="1.0" encoding="UTF-8"?>
<svg viewBox="0 0 900 900" xmlns="http://www.w3.org/2000/svg" xmlns:xlink="http://www.w3.org/1999/xlink">
 <defs>
  <filter id="af">
   <feGaussianBlur stdDeviation="3.5314"/>
  </filter>
  <filter id="ae">
   <feGaussianBlur stdDeviation="8.3187"/>
  </filter>
  <filter id="ah" x="-.12816" y="-.03269" width="1.2563" height="1.0654">
   <feGaussianBlur stdDeviation=".4768"/>
  </filter>
  <filter id="ag" x="-.11867" y="-.02605" width="1.2373" height="1.0521">
   <feGaussianBlur stdDeviation=".4768"/>
  </filter>
  <linearGradient id="c">
   <stop stop-color="#ccc" offset="0"/>
   <stop stop-color="#ccc" stop-opacity="0" offset="1"/>
  </linearGradient>
  <linearGradient id="a">
   <stop stop-color="#fff" offset="0"/>
   <stop stop-color="#fff" stop-opacity="0" offset="1"/>
  </linearGradient>
  <linearGradient id="b">
   <stop offset="0"/>
   <stop stop-opacity="0" offset="1"/>
  </linearGradient>
  <linearGradient id="d">
   <stop stop-color="#4d4d4d" offset="0"/>
   <stop stop-color="#4d4d4d" stop-opacity="0" offset="1"/>
  </linearGradient>
  <linearGradient id="e">
   <stop stop-color="#e6e6e6" offset="0"/>
   <stop stop-color="#e6e6e6" stop-opacity="0" offset="1"/>
  </linearGradient>
  <linearGradient id="x" x1="738.3" x2="490.18" y1="272.37" y2="341.76" gradientUnits="userSpaceOnUse">
   <stop stop-color="#1a1a1a" offset="0"/>
   <stop stop-color="#1a1a1a" stop-opacity="0" offset="1"/>
  </linearGradient>
  <linearGradient id="w" x1="237.86" x2="408.18" y1="261.86" y2="354.38" gradientUnits="userSpaceOnUse">
   <stop stop-color="#333" offset="0"/>
   <stop stop-color="#333" stop-opacity="0" offset="1"/>
  </linearGradient>
  <linearGradient id="s" x1="546.32" x2="647.77" y1="2274.7" y2="2214" gradientUnits="userSpaceOnUse" xlink:href="#d"/>
  <linearGradient id="ad" x1="879.99" x2="713.47" y1="738.16" y2="766.41" gradientUnits="userSpaceOnUse" xlink:href="#b"/>
  <linearGradient id="ac" x1="621.29" x2="729.82" y1="849.68" y2="842.24" gradientUnits="userSpaceOnUse" xlink:href="#c"/>
  <linearGradient id="ab" x1="471.12" x2="875.63" y1="907.66" y2="681.73" gradientUnits="userSpaceOnUse" xlink:href="#a"/>
  <linearGradient id="aa" x1="567.98" x2="607.93" y1="671.88" y2="688.7" gradientUnits="userSpaceOnUse" xlink:href="#e"/>
  <linearGradient id="z" x1="544.85" x2="652.09" y1="865.33" y2="859.02" gradientUnits="userSpaceOnUse" xlink:href="#b"/>
  <linearGradient id="y" x1="435.43" x2="610.88" y1="882.39" y2="874.95" gradientUnits="userSpaceOnUse" xlink:href="#d"/>
  <linearGradient id="v" x1="70.701" x2="105.4" y1="622.47" y2="635.08" gradientUnits="userSpaceOnUse" xlink:href="#e"/>
  <linearGradient id="u" x1="152.2" x2="204.24" y1="414.78" y2="420.73" gradientUnits="userSpaceOnUse" xlink:href="#c"/>
  <linearGradient id="t" x1="323.25" x2="258.6" y1="721.03" y2="727.09" gradientUnits="userSpaceOnUse" xlink:href="#c"/>
  <radialGradient id="p" cx="-89.22" cy="2072.8" r="59.403" gradientTransform="matrix(1.6077 .00346 -.00936 4.3525 435.98 -8311.5)" gradientUnits="userSpaceOnUse">
   <stop stop-color="#666" offset="0"/>
   <stop stop-color="#151515" offset="1"/>
  </radialGradient>
  <radialGradient id="n" cx="-100.66" cy="2063.4" r="186.51" gradientTransform="matrix(.76103 .08322 -.13471 1.232 619.21 -1830)" gradientUnits="userSpaceOnUse">
   <stop offset="0"/>
   <stop stop-color="#292929" offset=".6351"/>
   <stop stop-color="#515151" offset=".7908"/>
   <stop stop-color="#202020" offset=".9743"/>
   <stop offset="1"/>
  </radialGradient>
  <radialGradient id="m" cx="-249.75" cy="1933.7" r="124.52" gradientTransform="matrix(1.1581 -.72191 .49399 .79247 -506.14 -1089)" gradientUnits="userSpaceOnUse">
   <stop stop-color="#666" offset="0"/>
   <stop stop-color="#666" offset=".8914"/>
   <stop stop-color="#323232" offset="1"/>
  </radialGradient>
  <radialGradient id="l" cx="-136.32" cy="2063.9" r="199.64" gradientTransform="matrix(.72368 .13376 -.19484 1.0542 739.81 -1449.7)" gradientUnits="userSpaceOnUse">
   <stop stop-color="#999" offset="0"/>
   <stop stop-color="#434343" offset=".337"/>
   <stop stop-color="#d6d6d6" offset=".5909"/>
   <stop stop-color="#515151" offset=".8826"/>
   <stop stop-color="#999" offset="1"/>
  </radialGradient>
  <radialGradient id="r" cx="581.04" cy="1840.6" r="203.29" gradientTransform="matrix(1.0164 .03453 -.01702 .50112 210.13 -405.87)" gradientUnits="userSpaceOnUse" xlink:href="#b"/>
  <radialGradient id="q" cx="509.5" cy="2185.6" r="225.31" gradientTransform="matrix(2.4086 .24966 -.26593 2.5656 161.19 -4957.8)" gradientUnits="userSpaceOnUse" xlink:href="#b"/>
  <radialGradient id="o" cx="-73.713" cy="2059.9" r="186.51" gradientTransform="matrix(3.516 .2604 -.30733 4.1497 1210.5 -7826.2)" gradientUnits="userSpaceOnUse" xlink:href="#b"/>
  <radialGradient id="k" cx="313.33" cy="153.69" r="282.63" gradientTransform="matrix(.47807 .01006 -.00715 .33986 166.84 171.92)" gradientUnits="userSpaceOnUse" xlink:href="#a"/>
  <radialGradient id="j" cx="179.51" cy="413.19" r="16.559" gradientTransform="matrix(2.0981 .36603 -.39349 2.2555 -34.528 -584.47)" gradientUnits="userSpaceOnUse" xlink:href="#a"/>
  <radialGradient id="i" cx="170.84" cy="481.28" r="17.754" gradientTransform="matrix(.99721 .07458 -.22758 3.0428 110.01 -995.91)" gradientUnits="userSpaceOnUse" xlink:href="#a"/>
  <radialGradient id="h" cx="907.54" cy="326.34" r="282.63" gradientTransform="matrix(.47807 .01006 -.00715 .33986 166.84 171.92)" gradientUnits="userSpaceOnUse" xlink:href="#a"/>
  <radialGradient id="g" cx="671.82" cy="452.72" r="23.779" gradientTransform="matrix(1 0 0 2.0797 0 -488.8)" gradientUnits="userSpaceOnUse" xlink:href="#a"/>
  <radialGradient id="f" cx="659.64" cy="545.31" r="27.97" gradientTransform="matrix(1 0 0 1.5699 0 -310.77)" gradientUnits="userSpaceOnUse" xlink:href="#a"/>
 </defs>
 <g transform="translate(0 -152.36)">
  <path d="m182.41 359.63 19.975 15.77 81.478 5.7823c34.921-100.43 113.47-144.31 201.38-176.04 77.224 33.448 124.59 106.25 158.35 197l31.966-15.612 72.11 4.4604c-6.499-3.9424-14.855-7.1417-11.894-14.868-59.105-137.47-159.33-226.12-344.94-213.36-88.714 25.012-154.62 83.532-194.77 179.9-1.9732 9.9496-5.753 16.888-13.652 16.961z" fill="#b3b3b3"/>
  <path d="m546.95 590.97c-78.361 85.774-125.35 312.26-34.197 420.77 47.143 43.89 132.53 37.853 182.88 11.894l59.472-438.61c-83.746-73.414-147.95-44.233-208.15 5.9472z"/>
  <g transform="matrix(.73593 0 0 .73593 -138.51 -762.83)">
   <path d="m445.34 1649.2 2.6628 13.284 8.5863-6.0609-0.6066-12.988z" fill="#333"/>
   <path d="m454.55 1642 2.5402 13.912 72.226 4.5457-3.2904-14.223z" fill="#999"/>
  </g>
  <path d="m178.99 890.56c-105.16 10.808-154.26-359.95 49.413-390.05 203.68-53.559 221.14 420.53-49.413 390.05z" fill="url(#l)"/>
  <path transform="matrix(.72933 0 0 .72962 336.65 -804.54)" d="m-93.612 1784.3c-37.188-3.1034-75.07-11.233-107.08 23.234-84.298 78.159-89.751 152.02-102.53 226.27-12.094 8.2499-24.637 13.804-39.396 6.061-0.74442-24.55 11.828-145.03 89.904-234.86 22.212-21.412 20.061-46.884 18.688-72.226l33.335-5.0508c34.774-0.9119 68.428 2.0966 100.51 10.607z" fill="#1a1a1a" filter="url(#af)"/>
  <path d="m267.8 495.07c-27.368-2.2839-55.247-8.267-78.801 17.098-62.037 57.52-66.051 111.87-75.456 166.52-8.9002 6.0714-18.131 10.159-28.993 4.4605-0.54785-18.067 8.7043-106.73 66.163-172.84 16.346-15.758 14.763-34.503 13.753-53.154l24.532-3.7171c25.591-0.6711 50.359 1.543 73.969 7.8058z" fill="url(#m)"/>
  <path transform="matrix(.73593 0 0 .73593 338.79 -815.39)" d="m-192.5 1734.5 9.6429-0.3571-0.35715 43.571-8.5714 0.3572z" fill="#1a1a1a" filter="url(#ag)"/>
  <path transform="matrix(.73593 0 0 .73593 338.79 -815.39)" d="m-117.86 1740.9-0.35715 35h8.9286l-0.35715-34.643z" fill="#1a1a1a" filter="url(#ah)"/>
  <path d="m178.2 374.88c24.706 0.1148 49.413 1.7329 74.119 6.0452 10.97 5.0815 19.08 10.163 24.444 15.244-6.5258 18.558-11.872 37.545-10.776 58.875l-81.478-4.731-21.552 0.78848c0.0839-24.618 2.0085-49.527 15.244-76.222z" fill="#323232" stroke="#000" stroke-width=".73593"/>
  <path d="m178.01 375.28c-13.061 26.547-14.98 51.327-15.064 75.824l21.549-0.78193c-0.97649-19.694 0.78448-39.547 11.568-59.933l-18.053-15.11z" fill="url(#u)"/>
  <path d="m648.05 422.59c6.542-7.6942 14.675-14.593 27.134-19.329l82.518 4.8322c15.95 30.358 16.118 61.592 14.496 92.926-26.763 2.9256-53.525 5.032-80.288 1.1151-11.751 0.31256-22.933-1.0811-32.71-6.6907 3.8479-26.806-3.3301-49.937-11.151-72.854z" fill="#767676"/>
  <path d="m267.8 495.07c-27.368-2.2839-55.247-8.267-78.801 17.098-62.037 57.52-66.051 111.87-75.456 166.52-8.9002 6.0714-18.131 10.159-28.993 4.4605-0.54785-18.067 8.7043-106.73 66.163-172.84 16.346-15.758 14.763-34.503 13.753-53.154l24.532-3.7171c25.591-0.6711 50.359 1.543 73.969 7.8058z" fill="url(#v)"/>
  <path d="m378.74 556.23c-68.949-102.31-171.19-68.568-196.6-12.616-55.731 92.8-83.144 192.38-27.335 312.25 32.278 60.257 107.07 85.932 178.73 21.027 82.025-76.258 73.616-276.81 45.207-320.66z" fill="url(#n)"/>
  <path d="m178.2 374.89-0.29897 0.62098 17.915 14.604 80.884 6.2554 0.069-0.20702c-5.363-5.0814-13.477-10.166-24.447-15.248-24.706-4.3123-49.416-5.9107-74.122-6.0255z" fill="#b3b3b3"/>
  <path d="m207.51 365.94-8.1478 19.187 66.891 5.9138 4.731-21.421z" fill="#333"/>
  <path d="m182.41 359.63 19.975 15.77 81.478 5.7823c34.921-100.43 113.47-144.31 201.38-176.04 77.224 33.448 124.59 106.25 158.35 197l31.966-15.612 72.11 4.4604c-6.499-3.9424-14.855-7.1417-11.894-14.868-59.105-137.47-159.33-226.12-344.94-213.36-88.714 25.012-154.62 83.532-194.77 179.9-1.9732 9.9496-5.753 16.888-13.652 16.961z" fill="url(#k)"/>
  <path d="m207.77 366.2-8.1478 19.055-3.9425-3.5482 8.2793-21.421z" fill="#666"/>
  <path d="m412.48 193.5c-106.33 0.85501-165.39 80.149-211.72 180.6l0.78193 0.62091 52.366 4.3236 29.943 2.1388c34.905-100.39 113.41-144.27 201.28-176l0.11499-1.5408c-26.502-7.1193-50.659-10.32-72.766-10.142z" fill="url(#w)"/>
  <path d="m424.64 161.56c-2.6298 7e-3 -5.2901 0.0199-7.9573 0.0692 128.26 6.8093 195.83 91.287 239.55 206.31l17.087 17.11 72.191 4.6916c-6.0201-3.4298-12.393-6.72-9.7511-13.615-55.411-128.88-146.95-214.84-311.12-214.57z" fill="url(#x)"/>
  <path d="m643.59 401.5 83.261 2.4986 21.187-14.159-72.854-5.4137z" fill="#1a1a1a"/>
  <g transform="matrix(.73593 0 0 .73593 338.79 -815.39)">
   <path d="m445.34 1649.2 2.6628 13.284 8.5863-6.0609-0.6066-12.988z" fill="#333"/>
   <path d="m454.55 1642 2.5402 13.912 72.226 4.5457-3.2904-14.223z" fill="#999"/>
  </g>
  <path d="m675.18 403.27c-12.459 4.7356-20.596 11.624-27.138 19.318 7.821 22.917 15.002 46.051 11.154 72.858 9.7383 5.5874 20.865 6.9903 32.565 6.6924 7.933-31.869 3.547-64.757-12.948-98.661l-3.6337-0.20701z" fill="#b3b3b3"/>
  <path d="m378.74 556.23c-68.949-102.31-171.19-68.568-196.6-12.616-55.731 92.8-83.144 192.38-27.335 312.25 32.278 60.257 107.07 85.932 178.73 21.027 82.025-76.258 73.616-276.81 45.207-320.66z" fill="url(#o)"/>
  <path d="m313.56 624.57c-18.574-36.761-37.147-53.367-55.721-1.0514-24.333 50.037-36.85 105.98-22.078 175.57 16.992 32.211 35.263 47.165 57.823 4.2053 32.374-59.576 22.246-119.15 19.975-178.73z" fill="url(#p)"/>
  <path d="m313.56 624.57c-18.574-36.761-37.147-53.367-55.721-1.0514-24.333 50.037-36.85 105.98-22.078 175.57 16.992 32.211 35.263 47.165 57.823 4.2053 32.374-59.576 22.246-119.15 19.975-178.73z" fill="url(#t)"/>
  <path d="m598.94 555.47c-17.878 8.9723-35.095 21.42-51.998 35.509-78.361 85.774-125.36 312.26-34.198 420.77 16.004 14.9 36.417 24.021 58.369 28.586l-21.204-30.081c-63.424-170.61-60.941-278.47 41.626-425.23l7.4053-29.552z" fill="url(#y)" opacity=".1591"/>
  <path d="m638.52 1044.1c-158.74-7.8286-168.25-454.67 68.243-487.85 230.6-26.254 180.84 502.78-68.243 487.85z" fill="#4d4d4d"/>
  <path d="m638.52 1044.1c-158.74-7.8286-168.25-454.67 68.243-487.85 230.6-26.254 180.84 502.78-68.243 487.85z" fill="url(#z)"/>
  <path d="m638.52 1044.1c-158.74-7.8286-168.25-454.67 68.243-487.85 230.6-26.254 180.84 502.78-68.243 487.85z" fill="url(#q)"/>
  <path d="m644.06 1044.1c-145.86-7.8286-154.6-454.67 62.704-487.85 211.88-26.254 166.16 502.78-62.704 487.85z" fill="url(#ab)"/>
  <path d="m681.53 658.21c56.975-74.284 109.45-92.714 152.44 6.308 21.572 94.887 28.295 191.17-38.899 294.37-29.263 42.427-63.128 73.677-119.85 49.413-57.63-78.687-59.394-192.92 6.308-350.09z" fill="url(#ac)" opacity=".3939"/>
  <path d="m678.55 662.67c56.975-74.284 109.45-92.714 152.44 6.308 21.572 94.887 28.295 191.17-38.899 294.37-29.263 42.427-63.128 73.677-119.85 49.413-57.63-78.687-59.394-192.92 6.308-350.09z" fill="url(#ad)"/>
  <path transform="matrix(.98095 .02196 -.10578 .74067 392.5 -837.35)" d="m672.86 2208.8a53.571 135 0 1 1 -1.7815 -34.525"/>
  <path transform="matrix(.84968 .01902 -.09163 .64155 442.52 -616.61)" d="m672.86 2208.8a53.571 135 0 1 1 -1.7815 -34.525" fill="#4d4d4d"/>
  <path transform="matrix(.71474 0 0 .73593 344.25 -815.39)" d="m437.14 1803.6c-1.5643 45.405-8.8549 87.231-42.426 112.63-54.74 85.375-110.93 169.85-117.18 285.37 17.509 7.4078 35.019 8.0812 52.528 2.0203 16.109-98.929 36.729-197.4 130.81-288.4 64.398-59.286 114.97-48.46 160.61-12.627 26.146 29.874 47.258 62.893 62.629 99.5-8.8331-41.248-20.004-82.496-67.175-123.74-16.832-10.122-16.455-42.146-19.193-70.206h-118.69z" filter="url(#ae)"/>
  <path d="m657.34 501.39c-1.1512 33.415-6.5166 64.197-31.223 82.89-40.285 62.831-81.639 125-86.235 210.01 12.886 5.4517 25.771 5.9472 38.657 1.4868 11.855-72.805 27.03-145.27 96.271-212.24 47.393-43.631 84.612-35.664 118.2-9.2926 19.241 21.985 34.779 46.285 46.091 73.225-6.5006-30.356-14.722-60.711-49.437-91.067-12.387-7.449-12.11-31.016-14.125-51.667h-87.35z" fill="#4d4d4d"/>
  <path d="m657.34 501.39c-1.1512 33.415-6.5166 64.197-31.223 82.89-40.285 62.831-81.639 125-86.235 210.01 12.886 5.4517 25.771 5.9472 38.657 1.4868 11.855-72.805 27.03-145.27 96.271-212.24 47.393-43.631 84.612-35.664 118.2-9.2926 19.241 21.985 34.779 46.285 46.091 73.225-6.5006-30.356-14.722-60.711-49.437-91.067-12.387-7.449-12.11-31.016-14.125-51.667h-87.35z" fill="url(#r)"/>
  <path d="m657.34 501.39c-1.1512 33.415-6.5166 64.197-31.223 82.89-40.285 62.831-81.639 125-86.235 210.01 12.886 5.4517 25.771 5.9472 38.657 1.4868 11.855-72.805 27.03-145.27 96.271-212.24 47.393-43.631 84.612-35.664 118.2-9.2926 19.241 21.985 34.779 46.285 46.091 73.225-6.5006-30.356-14.722-60.711-49.437-91.067-12.387-7.449-12.11-31.016-14.125-51.667h-87.35z" fill="url(#aa)"/>
  <g transform="matrix(.73593 0 0 .73593 362.97 -712.36)">
   <path d="m445.34 1649.2 2.6628 13.284 8.5863-6.0609-0.6066-12.988z" fill="#333"/>
   <path d="m454.55 1642 2.5402 13.912 72.226 4.5457-3.2904-14.223z" fill="#999"/>
  </g>
  <path d="m657.34 501.4c-1.059 30.738-5.7004 59.226-25.666 78.147 5.9977 10.636 14.908 16.402 39.418-3.8177 17.437-20.971 17.734-45.377 15.616-70.259l-4.9216-1.4259-24.447-2.6448z" fill="url(#f)"/>
  <path transform="matrix(.71578 .01603 -.07719 .54046 493.55 -391.45)" d="m672.86 2208.8a53.571 135 0 1 1 -1.7815 -34.525"/>
  <path transform="matrix(.71578 .01603 -.07719 .54046 493.55 -391.45)" d="m672.86 2208.8a53.571 135 0 1 1 -1.7815 -34.525" fill="url(#s)"/>
  <path d="m178.01 375.28c-13.061 26.547-14.98 51.327-15.064 75.824l21.549-0.78193c-0.97649-19.694 0.78448-39.547 11.568-59.933l-18.053-15.11z" fill="url(#j)"/>
  <path d="m188.59 453.52-24.125 3.6336c0.95832 17.69 2.4156 35.48-11.384 50.711 8.2984 2.6202 17.728 2.1864 33.531-15.501l1.9778-38.844z" fill="url(#i)"/>
  <path d="m182.41 359.63 19.975 15.77 81.478 5.7823c34.921-100.43 113.47-144.31 201.38-176.04 77.224 33.448 124.59 106.25 158.35 197l31.966-15.612 72.11 4.4604c-6.499-3.9424-14.855-7.1417-11.894-14.868-59.105-137.47-159.33-226.12-344.94-213.36-88.714 25.012-154.62 83.532-194.77 179.9-1.9732 9.9496-5.753 16.888-13.652 16.961z" fill="url(#h)"/>
  <path d="m675.18 403.27c-12.459 4.7356-20.596 11.624-27.138 19.318 7.821 22.917 15.002 46.051 11.154 72.858 9.7383 5.5874 20.865 6.9903 32.565 6.6924 7.933-31.869 3.547-64.757-12.948-98.661l-3.6337-0.20701z" fill="url(#g)"/>
 </g>
</svg>
